<svg width="49" height="48" viewBox="0 0 49 48" fill="none" xmlns="http://www.w3.org/2000/svg">
<g clip-path="url(#clip0_1_11785)">
<path d="M36.5 10C36.5 9.73478 36.3946 9.48043 36.2071 9.29289C36.0196 9.10536 35.7652 9 35.5 9H28.5V2C28.5 1.73478 28.3946 1.48043 28.2071 1.29289C28.0196 1.10536 27.7652 1 27.5 1H21.5C21.2348 1 20.9804 1.10536 20.7929 1.29289C20.6054 1.48043 20.5 1.73478 20.5 2V9H13.5C13.2348 9 12.9804 9.10536 12.7929 9.29289C12.6054 9.48043 12.5 9.73478 12.5 10V16C12.5 16.2652 12.6054 16.5196 12.7929 16.7071C12.9804 16.8946 13.2348 17 13.5 17H20.5V24C20.5 24.2652 20.6054 24.5196 20.7929 24.7071C20.9804 24.8946 21.2348 25 21.5 25H27.5C27.7652 25 28.0196 24.8946 28.2071 24.7071C28.3946 24.5196 28.5 24.2652 28.5 24V17H35.5C35.7652 17 36.0196 16.8946 36.2071 16.7071C36.3946 16.5196 36.5 16.2652 36.5 16V10Z" stroke="black" stroke-width="2" stroke-linecap="round" stroke-linejoin="round"/>
<path d="M7.50047 47.0001L3.48047 42.0001C2.19431 40.4086 1.48887 38.4263 1.48047 36.3801V26.0001C1.48046 25.6044 1.55871 25.2127 1.71073 24.8474C1.86274 24.4821 2.08551 24.1505 2.36621 23.8716C2.64691 23.5928 2.97999 23.3722 3.34628 23.2227C3.71256 23.0731 4.10482 22.9974 4.50047 23.0001C5.29612 23.0001 6.05918 23.3161 6.62179 23.8787C7.1844 24.4414 7.50047 25.2044 7.50047 26.0001V33.7401" stroke="black" stroke-width="2" stroke-linecap="round" stroke-linejoin="round"/>
<path d="M16.5005 46.7201V40.7201C16.504 38.9453 15.9745 37.2104 14.9805 35.7401L12.7005 32.3001C12.5029 31.9716 12.2404 31.6869 11.9291 31.4633C11.6178 31.2396 11.2642 31.0818 10.8898 30.9995C10.5155 30.9171 10.1282 30.9119 9.75181 30.9842C9.37538 31.0566 9.01765 31.2049 8.70047 31.4201C8.13503 31.8003 7.72761 32.3736 7.55457 33.0326C7.38153 33.6917 7.45474 34.3912 7.76047 35.0001L10.5005 39.5001" stroke="black" stroke-width="2" stroke-linecap="round" stroke-linejoin="round"/>
<path d="M41.5 47L45.5 41.96C46.7862 40.3685 47.4916 38.3862 47.5 36.34V26C47.5 25.2044 47.1839 24.4413 46.6213 23.8787C46.0587 23.3161 45.2956 23 44.5 23C43.7044 23 42.9413 23.3161 42.3787 23.8787C41.8161 24.4413 41.5 25.2044 41.5 26V33.76" stroke="black" stroke-width="2" stroke-linecap="round" stroke-linejoin="round"/>
<path d="M32.5 46.7201V40.7201C32.4965 38.9453 33.026 37.2104 34.02 35.7401L36.3 32.3001C36.4976 31.9716 36.76 31.6869 37.0714 31.4633C37.3827 31.2396 37.7363 31.0818 38.1107 30.9995C38.485 30.9171 38.8723 30.9119 39.2487 30.9842C39.6251 31.0566 39.9828 31.2049 40.3 31.4201C40.8655 31.8003 41.2729 32.3736 41.4459 33.0326C41.619 33.6917 41.5458 34.3912 41.24 35.0001L38.5 39.5001" stroke="black" stroke-width="2" stroke-linecap="round" stroke-linejoin="round"/>
</g>
<defs>
<clipPath id="clip0_1_11785">
<rect width="48" height="48" fill="white" transform="translate(0.5)"/>
</clipPath>
</defs>
</svg>
