<svg width="49" height="48" viewBox="0 0 49 48" fill="none" xmlns="http://www.w3.org/2000/svg">
<g clip-path="url(#clip0_1_3029)">
<path d="M23.8484 13.564C27.3179 13.564 30.1304 10.7515 30.1304 7.282C30.1304 3.81255 27.3179 1 23.8484 1C20.379 1 17.5664 3.81255 17.5664 7.282C17.5664 10.7515 20.379 13.564 23.8484 13.564Z" stroke="black" stroke-width="2" stroke-linecap="round" stroke-linejoin="round"/>
<path d="M13.5 26.1292C13.5 24.7703 13.7677 23.4247 14.2877 22.1692C14.8077 20.9138 15.57 19.773 16.5309 18.8121C17.4918 17.8512 18.6325 17.089 19.888 16.5689C21.1435 16.0489 22.4891 15.7812 23.848 15.7812C25.2069 15.7813 26.5525 16.0489 27.808 16.5689C29.0635 17.089 30.2042 17.8512 31.1651 18.8121C32.126 19.773 32.8883 20.9138 33.4083 22.1692C33.9283 23.4247 34.196 24.7703 34.196 26.1292" stroke="black" stroke-width="2" stroke-linecap="round" stroke-linejoin="round"/>
<path d="M47.5008 26.1305C47.5012 24.7351 47.1423 23.363 46.4588 22.1464C45.7752 20.9298 44.7899 19.9097 43.5977 19.1844C42.4056 18.459 41.0467 18.0528 39.6521 18.0048C38.2574 17.9568 36.8739 18.2688 35.6348 18.9105" stroke="black" stroke-width="2" stroke-linecap="round" stroke-linejoin="round"/>
<path d="M39.2864 15.7818C41.9396 15.7818 44.0904 13.631 44.0904 10.9778C44.0904 8.32465 41.9396 6.17383 39.2864 6.17383C36.6332 6.17383 34.4824 8.32465 34.4824 10.9778C34.4824 13.631 36.6332 15.7818 39.2864 15.7818Z" stroke="black" stroke-width="2" stroke-linecap="round" stroke-linejoin="round"/>
<path d="M32.64 37.9412L41.5 34.9992C42.5845 34.6777 43.7417 34.697 44.8148 35.0548C45.888 35.4125 46.8253 36.0913 47.5 36.9992C23.042 49.2252 30.956 49.1532 9.5 41.9992L1.5 46.9992" stroke="black" stroke-width="2" stroke-linecap="round" stroke-linejoin="round"/>
<path d="M19.5 39H30.5C30.7634 39.0489 31.0338 39.0452 31.2957 38.9892C31.5576 38.9332 31.8059 38.8259 32.0262 38.6736C32.2466 38.5213 32.4346 38.3269 32.5796 38.1017C32.7245 37.8764 32.8235 37.6248 32.8708 37.3611C32.9181 37.0975 32.9129 36.8271 32.8553 36.5655C32.7978 36.3039 32.689 36.0563 32.5354 35.8368C32.3818 35.6174 32.1864 35.4305 31.9603 35.2869C31.7342 35.1433 31.4819 35.0458 31.218 35C30.9805 34.958 30.7375 34.958 30.5 35H24.5C22.1296 32.5538 18.9042 31.1202 15.5 31H9.5L1.5 35" stroke="black" stroke-width="2" stroke-linecap="round" stroke-linejoin="round"/>
</g>
<defs>
<clipPath id="clip0_1_3029">
<rect width="48" height="48" fill="white" transform="translate(0.5)"/>
</clipPath>
</defs>
</svg>
