<svg width="49" height="48" viewBox="0 0 49 48" fill="none" xmlns="http://www.w3.org/2000/svg">
<path d="M34 24.5V36.5" stroke="black" stroke-width="2" stroke-linecap="round" stroke-linejoin="round"/>
<path d="M40 30.5H28" stroke="black" stroke-width="2" stroke-linecap="round" stroke-linejoin="round"/>
<path d="M35.07 44.2941L36.176 43.8741C41.436 41.8741 46 36.8261 46 31.1981V24.4121C46.0002 24.0051 45.8814 23.6069 45.6582 23.2665C45.4351 22.926 45.1173 22.6583 44.744 22.4961C41.292 21.206 37.6411 20.5292 33.956 20.4961C30.2994 20.5273 26.677 21.2044 23.256 22.4961C22.8827 22.6583 22.5649 22.926 22.3418 23.2665C22.1186 23.6069 21.9998 24.0051 22 24.4121V31.2001C22 36.8281 26.476 41.8721 31.736 43.8761L32.842 44.2961C33.5596 44.5695 34.3529 44.5688 35.07 44.2941Z" stroke="black" stroke-width="2" stroke-linecap="round" stroke-linejoin="round"/>
<path d="M18 24.5H4C3.46957 24.5 2.96086 24.2893 2.58579 23.9142C2.21071 23.5391 2 23.0304 2 22.5V16.5C2 15.4391 2.42143 14.4217 3.17157 13.6716C3.92172 12.9214 4.93913 12.5 6 12.5H36C37.0609 12.5 38.0783 12.9214 38.8284 13.6716C39.5786 14.4217 40 15.4391 40 16.5V17.5" stroke="black" stroke-width="2" stroke-linecap="round" stroke-linejoin="round"/>
<path d="M7 12.5L7.7 6.168C7.78319 5.16913 8.23836 4.2379 8.97541 3.55863C9.71246 2.87936 10.6777 2.50155 11.68 2.5H30.32C31.3223 2.50155 32.2875 2.87936 33.0246 3.55863C33.7616 4.2379 34.2168 5.16913 34.3 6.168L35 12.5" stroke="black" stroke-width="2" stroke-linecap="round" stroke-linejoin="round"/>
<path d="M6 18.5C6 19.0304 6.21071 19.5391 6.58579 19.9142C6.96086 20.2893 7.46957 20.5 8 20.5C8.53043 20.5 9.03914 20.2893 9.41421 19.9142C9.78929 19.5391 10 19.0304 10 18.5C10 17.9696 9.78929 17.4609 9.41421 17.0858C9.03914 16.7107 8.53043 16.5 8 16.5C7.46957 16.5 6.96086 16.7107 6.58579 17.0858C6.21071 17.4609 6 17.9696 6 18.5Z" stroke="black" stroke-width="2" stroke-linecap="round" stroke-linejoin="round"/>
<path d="M12 24.5V27.5C12 28.2956 11.6839 29.0587 11.1213 29.6213C10.5587 30.1839 9.79565 30.5 9 30.5C8.20435 30.5 7.44129 30.1839 6.87868 29.6213C6.31607 29.0587 6 28.2956 6 27.5V24.5" stroke="black" stroke-width="2" stroke-linecap="round" stroke-linejoin="round"/>
<path d="M2 8.5L7 12.5" stroke="black" stroke-width="2" stroke-linecap="round" stroke-linejoin="round"/>
<path d="M40 8.5L35 12.5" stroke="black" stroke-width="2" stroke-linecap="round" stroke-linejoin="round"/>
</svg>
