<svg width="147" height="109" viewBox="0 0 147 109" fill="none" xmlns="http://www.w3.org/2000/svg">
<g clip-path="url(#clip0_32_57)">
<ellipse cx="42" cy="33.5" rx="34" ry="33.5" fill="white" fill-opacity="0.8"/>
<ellipse cx="117.5" cy="72" rx="28.5" ry="28" fill="white" fill-opacity="0.8"/>
<path d="M134.242 18.0903C130.769 14.9774 126.661 11.322 122.539 7.71021C120.353 5.67747 117.471 4.56039 114.487 4.58868C111.503 4.61697 108.644 5.78849 106.496 7.86232C105 9.21212 103.513 10.5707 102.034 11.938L98.734 14.9422C97.89 15.794 96.827 16.3956 95.6625 16.6803C94.4979 16.965 93.2774 16.9217 92.1358 16.5552L89.4606 15.8018C87.2827 15.1732 84.9552 14.5721 82.6676 13.9637C80.1856 13.2914 77.5755 13.2487 75.0731 13.8396C72.5707 14.4306 70.2551 15.6365 68.3357 17.3483C68.2171 17.4542 68.09 17.5502 67.9558 17.6353C67.8557 17.6184 67.7575 17.5916 67.6627 17.5554C65.2665 16.6202 62.6993 16.2049 60.1309 16.3369C57.5626 16.4689 55.0516 17.1453 52.7641 18.3211C51.0075 19.2541 49.3141 20.3016 47.6948 21.4567C47.0742 21.8914 46.4517 22.3161 45.8156 22.7227C44.5995 23.5671 43.2179 24.1432 41.7624 24.4125C40.3068 24.6818 38.8107 24.6383 37.3731 24.2849C36.0139 23.9587 34.545 23.6527 33.1279 23.3475L31.806 23.0556C28.9199 22.3443 25.8809 22.5956 23.1509 23.7712C20.421 24.9467 18.1493 26.9823 16.6815 29.5685C13.812 34.3433 10.9298 39.086 8.03476 43.7967C7.15351 45.0978 6.54484 46.5641 6.2455 48.1072C5.94616 49.6503 5.96235 51.2382 6.29308 52.775C6.73284 54.2885 7.47397 55.6975 8.47188 56.9171C9.46979 58.1366 10.7039 59.1416 12.0998 59.8716L18.171 63.3805L22.0602 65.5702C21.0949 66.6591 20.1948 67.804 19.3645 68.9991C18.5145 70.2066 17.9125 71.571 17.5934 73.0133C17.2744 74.4555 17.2446 75.9468 17.5059 77.4007C17.8241 78.8591 18.4268 80.2404 19.2796 81.4654C20.1323 82.6903 21.2182 83.7347 22.475 84.5388C23.4283 85.1423 24.42 85.6825 25.444 86.156L25.8644 86.3671C25.9493 86.826 26.0049 87.5172 26.0573 88.0234C26.0754 89.4358 26.3857 90.8292 26.9686 92.1157C28.3105 94.029 30.0951 95.589 32.1699 96.6625C33.4988 97.5033 35.0018 98.0297 36.5644 98.2018C38.1271 98.3739 39.7084 98.1871 41.1879 97.6556C44.8835 101.697 49.0271 103.2 53.5432 102.034C54.2765 101.835 54.9898 101.568 55.6741 101.237L56.4573 101.794C57.7175 102.762 59.062 103.615 60.4746 104.342C62.7658 105.361 65.3413 105.545 67.7535 104.861C70.1656 104.177 72.2621 102.669 73.6784 100.599L76.1466 97.2221L76.2541 97.0784L76.6974 97.3575L80.7937 99.9423C83.2125 101.538 86.1443 102.16 89.0017 101.684C90.5492 101.368 92.0134 100.731 93.2998 99.8142C94.5863 98.8973 95.6663 97.7208 96.4704 96.3604C96.7898 95.8577 97.0774 95.3505 97.3451 94.847C98.9105 95.8014 100.696 96.3348 102.527 96.3953C104.359 96.4558 106.176 96.0415 107.8 95.1924C109.485 94.3352 110.957 93.1106 112.106 91.6087C113.256 90.1069 114.054 88.366 114.442 86.5144C117.35 85.8584 119.907 84.1376 121.612 81.6903C123.525 79.1832 124.391 76.0306 124.027 72.8969C125.98 71.5123 127.545 69.649 128.572 67.4853C129.769 65.1822 130.1 62.5256 129.506 59.9983C128.912 57.471 127.432 55.2407 125.335 53.7127C125.201 53.6033 125.059 53.5057 124.927 53.4063L128.806 47.1174C131.454 42.8581 134.08 38.5892 136.684 34.3107C138.37 31.789 139.054 28.728 138.602 25.7275C138.15 22.727 136.595 20.0034 134.242 18.0903ZM95.2818 50.3495L89.8076 58.8218L93.8049 61.3732C95.3593 62.3649 96.9038 63.3584 98.4744 64.3265L113.014 73.5521C114.076 74.2222 114.196 74.3652 113.443 75.5362C112.871 76.4571 112.53 76.5615 112.49 76.5689C112.45 76.5763 111.974 76.5097 111.379 76.1349C107.122 73.4835 102.87 70.7969 98.6213 68.0753L92.9961 64.5252C92.6336 64.293 92.2711 64.0609 91.8351 63.8218L89.5133 62.415L83.6813 71.5724L86.0586 72.4428L86.6522 72.6425C86.802 72.6801 86.9488 72.7288 87.0915 72.7881L97.5969 79.428L103.748 83.3141C104.613 83.866 104.547 84.064 104.501 84.2066C103.961 85.9159 103.591 86.0876 103.175 86.1233C102.759 86.1113 102.355 85.9864 102.005 85.762C97.4548 82.9518 93.0388 80.1992 88.3365 77.1798L82.4968 73.4733L78.2348 80.1943C77.966 79.813 77.6716 79.4504 77.3538 79.109C76.234 77.9069 74.8827 76.9441 73.3814 76.2787C71.88 75.6132 70.2595 75.2588 68.6177 75.2368C68.5192 75.2355 68.4209 75.2261 68.3239 75.2087C68.2843 75.1566 68.2498 75.1008 68.2209 75.042C67.4161 73.443 66.2944 72.0246 64.9243 70.8734C63.5541 69.7221 61.9641 68.8621 60.2512 68.3457C58.6809 61.6928 54.6681 58.2776 48.0204 57.9499C47.0267 56.0268 45.5558 54.3916 43.7489 53.2011C41.942 52.0106 39.8598 51.3049 37.7021 51.1516C32.0784 50.6756 28.881 54.2902 27.2416 56.853L26.565 56.483L24.6385 55.3745C22.0317 53.876 19.4367 52.3856 16.838 50.8753C16.3747 50.5999 16.2208 50.3808 16.1942 50.2928C16.2102 50.0054 16.3095 49.7289 16.4801 49.4971C19.1769 45.0157 22.3645 39.7315 25.5669 34.5272C25.9423 33.8707 26.5247 33.3574 27.2229 33.0676C27.9211 32.7779 28.6956 32.7281 29.4252 32.926C30.2816 33.0977 31.1517 33.2875 32.0118 33.4791C34.1376 33.9912 36.2916 34.3781 38.4627 34.6377C42.8763 35.0555 47.298 33.931 50.9765 31.4554L51.8053 30.9203C53.9425 29.5447 56.154 28.1244 58.3934 26.9672C58.6117 26.8545 58.8392 26.7606 59.0735 26.6866L58.0866 27.7049C53.4674 32.4388 53.1566 38.8414 57.3249 43.3214C62.3674 48.6818 69.2366 49.3709 74.4153 44.9873C74.7472 44.7196 75.0655 44.4337 75.3856 44.1578C76.5189 43.143 77.7251 42.2129 78.9945 41.375C79.3275 41.1689 80.3527 40.5253 82.6015 41.4813C93.7255 46.1702 104.951 52.4086 118.943 61.684C119.731 62.2089 119.894 62.3127 119.038 63.6473C118.182 64.9819 118.025 64.6911 117.302 64.2368C113.026 61.5546 108.748 58.8591 104.467 56.1503L99.0517 52.6748L97.6911 51.8949L95.2818 50.3495ZM80.0126 83.8993L81.4906 84.8123C83.4865 86.073 85.4506 87.3293 87.4329 88.572C87.7258 88.7253 87.9741 88.9518 88.1537 89.2295C88.3333 89.5072 88.4381 89.8267 88.4578 90.1569C88.4055 90.4634 88.2737 90.7507 88.0756 90.9902C87.8774 91.2296 87.6199 91.4128 87.3288 91.5213C87.0553 91.5947 86.7673 91.5946 86.4937 91.5211C84.5466 90.468 82.6112 89.1444 80.7634 87.9594L80.4699 87.7661C80.5084 86.4617 80.3543 85.1587 80.0126 83.8993ZM49.1649 89.8964C50.5372 87.8404 51.901 85.7757 53.2563 83.7022L56.3948 78.9327C56.7341 78.4263 56.9191 78.1444 57.1782 78.0965C57.4374 78.0485 57.7707 78.2345 58.3931 78.6455C59.654 79.4438 59.5296 79.6629 58.9314 80.6093L58.0715 81.9239C56.0323 85.0559 53.9181 88.2843 51.7972 91.4211C51.539 91.7349 51.2454 92.0177 50.9222 92.264C50.495 92.2257 50.0818 92.092 49.713 91.8728C49.3442 91.6536 49.0292 91.3544 48.7912 90.9973C48.7373 90.8731 48.5963 90.7238 49.145 89.9001L49.1649 89.8964ZM27.6127 74.8599C30.434 70.4379 33.3342 66.053 36.3113 61.5816C36.3497 61.4957 36.4058 61.4188 36.4759 61.3561C36.546 61.2933 36.6286 61.2461 36.7182 61.2174C36.8291 61.2027 36.9421 61.2173 37.0456 61.26C37.4452 61.3648 37.8178 61.554 38.1382 61.8151C38.4585 62.0762 38.7192 62.403 38.9027 62.7734C38.8733 62.9149 38.8259 63.052 38.7616 63.1813C36.1648 67.2006 33.3432 71.5091 30.1361 76.3532C29.7986 76.8696 29.6623 77.0805 28.6122 76.4185C27.562 75.7565 27.3793 75.326 27.3793 75.326C27.4222 75.1555 27.5019 74.9964 27.6127 74.8599ZM36.1024 85.7622C39.034 81.2683 41.9975 76.7788 44.9509 72.2912L47.3749 68.6753C47.6717 68.218 47.8608 68.0695 48.0302 68.0381C48.1246 68.024 48.2209 68.0308 48.3123 68.0582C49.078 68.2848 49.7522 68.7489 50.2376 69.3836C50.1624 69.7048 50.0505 70.0163 49.9042 70.3119C46.5711 75.4785 42.8641 81.0754 38.6752 87.4114C38.1347 88.2233 38.0047 88.4125 36.6301 87.501C35.4898 86.7422 35.5692 86.614 36.1024 85.7622ZM63.0623 92.8031C63.9655 91.3876 64.8823 89.9902 65.809 88.591C66.3802 87.7219 66.9614 86.8508 67.5226 85.9835C67.8457 85.5007 68.0465 85.3604 68.196 85.3328C68.2669 85.3194 68.3401 85.3274 68.4064 85.3557C69.5046 85.7199 70.0661 86.0803 70.3658 86.809C70.3293 87.0432 70.2604 87.2712 70.1612 87.4865C68.8929 89.5473 67.478 91.7074 65.5864 94.5233C65.1559 95.1497 64.9466 95.467 63.5974 94.5818C62.4317 93.7968 62.5986 93.5286 63.0623 92.8031ZM80.1225 23.782C81.4873 24.1381 82.8557 24.5143 84.216 24.9022C86.0418 25.4103 87.8676 25.9185 89.6461 26.3941C92.3376 27.1653 95.182 27.2306 97.9058 26.5839C100.63 25.9371 103.141 24.6 105.199 22.701C106.919 21.186 108.628 19.6111 110.274 18.0891L112.982 15.6175C114.287 14.4267 114.749 14.4136 116.064 15.5629L117.482 16.8173C120.872 19.8009 124.254 22.7998 127.629 25.8137C127.866 25.9631 128.069 26.16 128.226 26.3919C128.384 26.6239 128.491 26.8859 128.542 27.1614C128.593 27.4369 128.586 27.72 128.522 27.9929C128.459 28.2657 128.339 28.5223 128.171 28.7466C124.882 34.1493 121.566 39.5224 118.225 44.866L116.354 47.9049L113.076 45.9529C109.356 43.7318 105.508 41.4313 101.629 39.3531C97.2883 37.0613 92.5393 34.7933 86.3356 32.0724C83.7473 30.8858 80.8602 30.5135 78.0562 31.0046C75.5659 31.505 73.2388 32.6163 71.2836 34.2387C70.5917 34.7897 69.9471 35.3733 69.3287 35.9313C68.8676 36.3365 68.4481 36.7442 67.9553 37.145C67.6934 37.356 67.3832 37.4985 67.0526 37.5596C66.722 37.6208 66.3814 37.5987 66.0614 37.4954C65.7239 37.4072 65.4148 37.2333 65.164 36.9905C64.9132 36.7477 64.7293 36.4443 64.63 36.1096C64.5634 35.9776 64.5453 35.8263 64.579 35.6823C64.6127 35.5384 64.696 35.4109 64.8143 35.3223C65.7687 34.3513 66.7194 33.3603 67.6701 32.3693C70.0821 29.8596 72.5739 27.3351 75.1003 24.8867C75.7628 24.271 76.5779 23.8438 77.4609 23.6496C78.344 23.4553 79.263 23.501 80.1225 23.782Z" fill="url(#paint0_linear_32_57)"/>
</g>
<defs>
<linearGradient id="paint0_linear_32_57" x1="67.6103" y1="13.085" x2="84.1705" y2="102.578" gradientUnits="userSpaceOnUse">
<stop stop-color="#58335A" stop-opacity="0.9"/>
<stop offset="1" stop-color="#58335A" stop-opacity="0.43"/>
</linearGradient>
<clipPath id="clip0_32_57">
<rect width="140" height="99" fill="white" transform="translate(0 9.24219) rotate(-3.78533)"/>
</clipPath>
</defs>
</svg>
