<svg width="150" height="132" viewBox="0 0 150 132" fill="none" xmlns="http://www.w3.org/2000/svg">
<g clip-path="url(#clip0_32_42)">
<ellipse cx="81" cy="61.624" rx="49.5" ry="49" fill="white" fill-opacity="0.8"/>
<path d="M140.661 48.7093C141.466 49.0732 142.34 49.2604 143.224 49.2583C144.677 49.2791 146.092 48.7954 147.228 47.8897C148.364 46.9841 149.151 45.7126 149.453 44.2922C149.756 42.8718 149.556 41.3905 148.887 40.1011C148.219 38.8116 147.123 37.7939 145.788 37.2216L138.982 34.1718L142.034 27.3707C142.715 25.8514 142.764 24.1239 142.171 22.5681C141.578 21.0124 140.39 19.756 138.87 19.0752C137.35 18.3944 135.621 18.345 134.064 18.938C132.508 19.5309 131.25 20.7175 130.569 22.2368L127.517 29.0481L120.712 25.9983C119.212 25.432 117.553 25.4607 116.073 26.0784C114.594 26.6961 113.408 27.8561 112.757 29.3203C112.106 30.7845 112.041 32.442 112.574 33.9528C113.108 35.4637 114.199 36.7132 115.625 37.4453L122.431 40.4951L119.379 47.3064C119.042 48.0584 118.856 48.8697 118.833 49.6936C118.81 50.5175 118.95 51.3378 119.245 52.1076C119.54 52.8773 119.984 53.5813 120.551 54.1792C121.119 54.7771 121.799 55.2571 122.553 55.5917C123.355 55.9567 124.226 56.144 125.106 56.1407C126.308 56.1367 127.482 55.789 128.492 55.1386C129.502 54.4882 130.304 53.5624 130.803 52.4707L133.855 45.6595L140.661 48.7093Z" fill="url(#paint0_linear_32_42)"/>
<path d="M108.484 43.6575C106.701 39.8412 103.477 36.887 99.5182 35.4425C95.5594 33.998 91.1891 34.1811 87.3652 35.9516C87.1183 36.0659 86.8803 36.1984 86.6531 36.3481L77.579 17.2053C76.8019 15.5736 75.585 14.1907 74.0649 13.212C72.5448 12.2332 70.7818 11.6974 68.9738 11.6647C67.1659 11.6319 65.3846 12.1036 63.83 13.0267C62.2754 13.9497 61.0092 15.2877 60.1735 16.8902C55.1774 26.4121 48.7786 35.1302 41.1911 42.7527C36.8496 47.1819 32.079 51.1696 26.9493 54.6571C24.6683 56.1024 22.2888 57.3865 19.8284 58.4999C17.4582 59.6589 14.9964 60.8483 12.5753 62.3427C9.38917 64.4281 6.68673 67.1709 4.64959 70.3868C2.61244 73.6027 1.2878 77.2172 0.76471 80.9873C-0.2017 87.6969 1.53784 93.9185 5.64762 98.4932C10.3881 103.769 16.98 106.504 24.5079 106.504C28.0155 106.475 31.5004 105.938 34.8535 104.908C37.4901 104.059 40.055 103.002 42.5238 101.746L55.5347 128.178C55.9001 128.917 56.4075 129.577 57.028 130.12C57.6485 130.663 58.37 131.078 59.1512 131.343C59.9324 131.607 60.7581 131.715 61.581 131.66C62.404 131.606 63.2081 131.39 63.9475 131.025C64.687 130.66 65.3472 130.152 65.8905 129.532C66.4338 128.912 66.8496 128.191 67.1141 127.411C67.3786 126.63 67.4866 125.805 67.432 124.982C67.3774 124.16 67.1613 123.356 66.7959 122.617L54.2529 97.2022L56.3689 96.5617C71.1397 92.1191 88.6571 93.9389 97.7922 95.4333C99.543 95.7191 101.339 95.521 102.985 94.8603C104.631 94.1996 106.065 93.1015 107.131 91.6849C108.198 90.2683 108.857 88.5871 109.036 86.8234C109.215 85.0596 108.908 83.2805 108.148 81.6786L100.193 64.9757C100.366 64.9147 100.549 64.8436 100.722 64.7622C104.552 62.9921 107.521 59.7741 108.977 55.8163C110.432 51.8584 110.255 47.4847 108.484 43.6575ZM52.7779 84.4946C48.4737 85.6703 44.2612 87.1585 40.1739 88.9473L37.824 90.0859C35.7111 91.1859 33.5177 92.1239 31.2626 92.8917C27.1935 94.1015 19.6962 95.3418 14.9862 90.1062C12.8499 87.7274 12.9516 84.4844 13.1856 82.7663C13.4514 80.8179 14.1183 78.9457 15.1443 77.2677C16.1703 75.5897 17.5332 74.1424 19.1468 73.0171C21.125 71.8394 23.1622 70.7637 25.2505 69.7944C28.2401 68.4271 31.1295 66.8508 33.8973 65.0774C39.7363 61.1244 45.1711 56.6058 50.1228 51.587C57.2687 44.3892 63.4758 36.3178 68.5965 27.5646L94.5471 82.2885C83.6928 80.9364 67.3351 80.1435 52.7779 84.4946ZM91.9836 47.5917C92.2121 47.516 92.4362 47.4277 92.655 47.3274C93.0558 47.1425 93.4891 47.0383 93.9301 47.0207C94.3712 47.0032 94.8114 47.0726 95.2256 47.2251C95.6398 47.3775 96.02 47.61 96.3443 47.9093C96.6686 48.2086 96.9307 48.5687 97.1157 48.9692C97.3008 49.3697 97.405 49.8027 97.4226 50.2435C97.4402 50.6843 97.3707 51.1242 97.2181 51.5382C97.0656 51.9521 96.8329 52.332 96.5335 52.6561C96.234 52.9802 95.8736 53.2422 95.4728 53.4271C95.2709 53.522 95.074 53.6272 94.8828 53.7422L91.9836 47.5917Z" fill="url(#paint1_linear_32_42)"/>
<path d="M91.5757 24.4331C92.4147 24.4318 93.2449 24.2624 94.0172 23.935L120.599 12.671C121.357 12.3492 122.045 11.8813 122.623 11.2938C123.201 10.7064 123.657 10.011 123.966 9.24726C124.275 8.48356 124.43 7.66653 124.423 6.84283C124.416 6.01914 124.247 5.20489 123.925 4.4466C123.603 3.6883 123.135 3.0008 122.547 2.42336C121.959 1.84591 121.263 1.38982 120.499 1.08113C119.735 0.772436 118.917 0.617191 118.093 0.624254C117.269 0.631317 116.454 0.800551 115.695 1.12229L89.1241 12.3863C87.7915 12.9513 86.6953 13.9592 86.0211 15.2393C85.3469 16.5195 85.1363 17.9931 85.4248 19.4107C85.7132 20.8283 86.4832 22.1027 87.6041 23.0179C88.7251 23.9332 90.1282 24.4332 91.5757 24.4331Z" fill="url(#paint2_linear_32_42)"/>
<path d="M121.617 64.5588L114.853 67.4257C113.52 67.9906 112.424 68.9985 111.75 70.2787C111.075 71.5588 110.865 73.0325 111.153 74.4501C111.442 75.8677 112.212 77.142 113.333 78.0573C114.454 78.9726 115.857 79.4725 117.304 79.4725C118.147 79.475 118.981 79.3055 119.756 78.9743L126.511 76.1075C128.003 75.4327 129.173 74.2015 129.769 72.6767C130.366 71.1519 130.342 69.4545 129.703 67.9469C129.065 66.4393 127.861 65.2411 126.351 64.608C124.84 63.975 123.141 63.9573 121.617 64.5588Z" fill="url(#paint3_linear_32_42)"/>
<path d="M149.022 60.2484C148.7 59.4901 148.232 58.8026 147.644 58.2251C147.056 57.6477 146.36 57.1916 145.596 56.8829C144.832 56.5742 144.014 56.4189 143.19 56.426C142.366 56.4331 141.551 56.6023 140.792 56.9241L138.534 57.8797C137.002 58.5295 135.79 59.761 135.166 61.3034C134.543 62.8458 134.557 64.5726 135.208 66.1041C135.858 67.6355 137.09 68.8461 138.634 69.4695C140.177 70.093 141.905 70.0781 143.437 69.4284L145.696 68.4727C146.454 68.151 147.142 67.6831 147.72 67.0956C148.298 66.5082 148.755 65.8128 149.063 65.0491C149.372 64.2854 149.528 63.4683 149.521 62.6446C149.513 61.8209 149.344 61.0067 149.022 60.2484Z" fill="url(#paint4_linear_32_42)"/>
</g>
<defs>
<linearGradient id="paint0_linear_32_42" x1="130.904" y1="18.5264" x2="130.904" y2="56.1407" gradientUnits="userSpaceOnUse">
<stop stop-color="#EBC4B1"/>
<stop offset="1" stop-color="#EFD1C2" stop-opacity="0.62"/>
</linearGradient>
<linearGradient id="paint1_linear_32_42" x1="55.2286" y1="11.6631" x2="55.2286" y2="131.674" gradientUnits="userSpaceOnUse">
<stop stop-color="#EBC4B1"/>
<stop offset="1" stop-color="#EFD1C2" stop-opacity="0.62"/>
</linearGradient>
<linearGradient id="paint2_linear_32_42" x1="104.861" y1="0.624023" x2="104.861" y2="24.4331" gradientUnits="userSpaceOnUse">
<stop stop-color="#EBC4B1"/>
<stop offset="1" stop-color="#EFD1C2" stop-opacity="0.62"/>
</linearGradient>
<linearGradient id="paint3_linear_32_42" x1="120.614" y1="64.1201" x2="120.614" y2="79.4725" gradientUnits="userSpaceOnUse">
<stop stop-color="#EBC4B1"/>
<stop offset="1" stop-color="#EFD1C2" stop-opacity="0.62"/>
</linearGradient>
<linearGradient id="paint4_linear_32_42" x1="142.115" y1="56.4258" x2="142.115" y2="69.9266" gradientUnits="userSpaceOnUse">
<stop stop-color="#EBC4B1"/>
<stop offset="1" stop-color="#EFD1C2" stop-opacity="0.62"/>
</linearGradient>
<clipPath id="clip0_32_42">
<rect width="149" height="131" fill="white" transform="translate(0.5 0.624023)"/>
</clipPath>
</defs>
</svg>
