<svg width="140" height="129" viewBox="0 0 140 129" fill="none" xmlns="http://www.w3.org/2000/svg">
<ellipse cx="85.0156" cy="88.9043" rx="39.5" ry="39" fill="white" fill-opacity="0.8"/>
<circle cx="26.0156" cy="59.4043" r="20.5" fill="white" fill-opacity="0.8"/>
<path d="M71.206 11.4282C64.2939 12.3077 57.617 14.5141 51.5434 17.9258C48.0945 15.4569 44.1566 13.7529 39.9937 12.928C35.8307 12.103 31.5389 12.1762 27.4059 13.1426C23.2729 14.1089 19.3941 15.9462 16.0296 18.5312C12.6651 21.1161 9.89261 24.3891 7.89789 28.1308C5.90317 31.8724 4.73234 35.9963 4.46388 40.2259C4.19542 44.4555 4.83553 48.6933 6.34131 52.655C7.84708 56.6168 10.1837 60.211 13.1946 63.1969C16.2056 66.1828 19.8212 68.4913 23.7992 69.9677C23.9036 70.7761 23.9533 71.6009 24.0589 72.4185C25.4382 83.0971 29.9576 93.1263 37.0457 101.238C44.1339 109.35 53.4725 115.181 63.881 117.993C74.2896 120.805 85.3007 120.472 95.5223 117.037C105.744 113.601 114.717 107.217 121.308 98.6915C127.898 90.1661 131.81 79.882 132.548 69.1395C133.286 58.3969 130.818 47.6782 125.456 38.3383C120.094 28.9985 112.078 21.457 102.421 16.6671C92.7651 11.8772 81.9022 10.0541 71.206 11.4282ZM31.8343 24.1365C35.3846 23.678 38.991 24.2808 42.1973 25.8689C45.4036 27.457 48.066 29.9589 49.8476 33.0583C51.6292 36.1577 52.4502 39.7154 52.2066 43.2815C51.963 46.8476 50.6659 50.2619 48.4792 53.0927C46.2925 55.9235 43.3144 58.0435 39.9217 59.1848C36.5289 60.3261 32.8738 60.4374 29.4185 59.5045C25.9633 58.5717 22.8631 56.6366 20.5099 53.9441C18.1568 51.2515 16.6564 47.9223 16.1986 44.3776C15.5898 39.6251 16.8941 34.8248 19.8255 31.0301C22.7568 27.2354 27.0757 24.7562 31.8343 24.1365ZM83.659 107.842C72.5398 109.266 61.306 106.285 52.3638 99.5392C43.4216 92.7932 37.4822 82.8178 35.8176 71.7499C36.5309 71.705 37.2429 71.6508 37.9594 71.5582C42.8606 70.9284 47.5282 69.0905 51.5413 66.2102C55.5544 63.3299 58.7867 59.4978 60.9469 55.0595C63.107 50.6212 64.127 45.7163 63.9149 40.7871C63.7027 35.8579 62.2651 31.0594 59.7317 26.8243C65.327 24.1345 71.4406 22.6909 77.649 22.5937C83.8573 22.4964 90.0122 23.7478 95.6872 26.2611C101.362 28.7744 106.422 32.4896 110.515 37.1494C114.609 41.8092 117.639 47.3021 119.396 53.2479C121.152 59.1937 121.593 65.4501 120.688 71.5839C119.783 77.7178 117.553 83.5824 114.154 88.7716C110.754 93.9608 106.266 98.3507 100.999 101.637C95.733 104.923 89.8147 107.028 83.6542 107.805L83.659 107.842Z" fill="url(#paint0_linear_1_10)"/>
<path d="M84.1046 65.6648L80.2644 35.9333C80.0661 34.3981 79.2651 33.0047 78.0377 32.0596C76.8102 31.1145 75.2569 30.6952 73.7193 30.8938C72.1817 31.0924 70.7859 31.8927 69.8389 33.1186C68.8919 34.3446 68.4712 35.8958 68.6695 37.4309L73.129 71.9566L93.2288 87.4497C94.4577 88.3742 96.0024 88.7774 97.5276 88.5717C99.0529 88.3661 100.436 87.5681 101.376 86.3511C102.316 85.1341 102.737 83.5962 102.549 82.0712C102.361 80.5462 101.578 79.1571 100.37 78.2053L84.1046 65.6648Z" fill="url(#paint1_linear_1_10)"/>
<path d="M31.0089 49.9836C30.7744 50.2889 30.5695 50.6158 30.3971 50.96C30.2322 51.3048 30.0981 51.6635 29.9963 52.0319C29.8917 52.3977 29.8261 52.7735 29.8005 53.1529C29.7742 53.5358 29.7859 53.9203 29.8352 54.3009C29.885 54.6813 29.9715 55.0561 30.0933 55.42C30.2159 55.7799 30.3748 56.1265 30.5675 56.4545C30.7595 56.7849 30.9804 57.0977 31.2275 57.3894C31.4793 57.6775 31.7603 57.9388 32.0662 58.169C32.8299 58.7606 33.7289 59.1534 34.6824 59.3122C35.6359 59.471 36.6141 59.3907 37.5291 59.0787C37.8927 58.9558 38.243 58.7966 38.5746 58.6036C39.2338 58.2216 39.8112 57.7137 40.2738 57.1089C40.511 56.8108 40.7136 56.4867 40.8775 56.143C41.0492 55.7996 41.1866 55.4401 41.2876 55.0698C41.3833 54.7029 41.4457 54.3281 41.4741 53.95C41.5026 53.567 41.4941 53.1822 41.4487 52.8008C41.3997 52.4202 41.3133 52.0454 41.1906 51.6818C41.0684 51.3228 40.9127 50.976 40.7257 50.6461C40.5339 50.3136 40.3097 50.0008 40.0564 49.7123C39.8081 49.4206 39.5297 49.1557 39.2258 48.9222C38.9183 48.6942 38.5916 48.493 38.2494 48.321C37.9321 48.1654 37.5993 48.0437 37.2564 47.9581C38.2374 47.3769 39.0272 46.5223 39.5287 45.4993C40.0302 44.4764 40.2216 43.3295 40.0794 42.1997L38.5193 30.1213C38.321 28.5862 37.5201 27.1928 36.2926 26.2477C35.0652 25.3026 33.5118 24.8832 31.9742 25.0818C30.4367 25.2804 29.0408 26.0807 28.0938 27.3066C27.1468 28.5326 26.7262 30.0838 26.9245 31.6189L28.4845 43.6974C28.6313 44.8234 29.1034 45.8823 29.8432 46.7446C30.5829 47.6069 31.5583 48.2353 32.6501 48.553C32.3389 48.7208 32.0476 48.9232 31.7819 49.1564C31.4989 49.4073 31.24 49.6842 31.0089 49.9836Z" fill="url(#paint2_linear_1_10)"/>
<defs>
<linearGradient id="paint0_linear_1_10" x1="127.516" y1="108.904" x2="10.5156" y2="35.9044" gradientUnits="userSpaceOnUse">
<stop stop-color="#8EA1C8"/>
<stop offset="1" stop-color="#8EA1C8" stop-opacity="0.38"/>
</linearGradient>
<linearGradient id="paint1_linear_1_10" x1="81.7481" y1="29.8567" x2="89.4664" y2="89.613" gradientUnits="userSpaceOnUse">
<stop stop-color="#8EA1C8"/>
<stop offset="1" stop-color="#8EA1C8" stop-opacity="0.38"/>
</linearGradient>
<linearGradient id="paint2_linear_1_10" x1="31.9649" y1="25.083" x2="36.3901" y2="59.3435" gradientUnits="userSpaceOnUse">
<stop stop-color="#8EA1C8"/>
<stop offset="1" stop-color="#8EA1C8" stop-opacity="0.38"/>
</linearGradient>
</defs>
</svg>
