<svg width="174" height="205" viewBox="0 0 174 205" fill="none" xmlns="http://www.w3.org/2000/svg">
<path d="M159.349 56.5239C161.873 55.1001 164.114 53.1164 165.937 50.6924C167.198 48.9112 167.969 46.7549 168.155 44.4881C168.342 42.2212 167.935 39.9425 166.986 37.9316C166.594 37.1276 166.114 36.3811 165.559 35.7088C158.446 27.1056 147.575 36.1341 142.378 40.4838L141.426 41.2659C134.789 46.1506 128.286 51.7214 123.064 56.1946C117.842 60.6677 112.608 65.2917 107.203 70.3274C96.0444 60.7688 84.0602 52.4945 71.431 45.6292L69.9669 44.8883C57.7663 38.357 35.1951 26.1863 20.8715 41.458C18.3404 44.0167 16.3931 47.2218 15.1934 50.8037C13.9938 54.3855 13.577 58.239 13.9781 62.0398C14.9298 70.5607 19.9687 78.5053 27.3989 83.1705C33.365 86.8752 39.8557 87.7259 45.5656 88.4943L48.689 88.9197L52.276 89.4685C59.3646 90.5388 66.0627 91.5404 72.6755 93.2281C75.8232 94.0377 79.154 95.0119 82.6068 96.137C75.8474 104.153 69.6243 112.72 63.9886 121.768L63.0736 123.236C55.3627 135.586 40.9904 158.761 52.093 177.147C53.9234 180.367 56.4149 183.044 59.3578 184.955C62.3007 186.865 65.6086 187.952 69.0031 188.124H69.8327C77.1531 188.124 84.5711 183.87 89.732 176.598C93.9778 170.629 95.8323 163.632 97.3696 157.389C97.6624 156.25 97.9552 155.111 98.2602 153.986L99.2485 150.212C101.335 142.501 103.311 135.229 105.873 128.162C108.046 122.185 110.489 116.336 113.194 110.64C125.224 118.245 135.758 128.514 144.159 140.827C145.82 143.387 147.924 145.544 150.345 147.166C151.93 148.18 153.719 148.723 155.542 148.744C157.08 148.773 158.602 148.393 159.985 147.635C161.367 146.876 162.571 145.762 163.497 144.381C169.866 135.105 160.179 124.512 155.53 119.422C155.152 119.024 154.859 118.695 154.676 118.489C149.332 111.944 143.378 105.632 138.583 100.555C134.716 96.4389 130.653 92.3225 126.383 88.0141C135.267 75.0133 146.503 64.2803 159.349 56.5239Z" fill="white" fill-opacity="0.6"/>
<path d="M150.479 59.6783C152.477 58.5377 154.252 56.9486 155.696 55.0067C156.695 53.5799 157.305 51.8525 157.453 50.0365C157.6 48.2206 157.279 46.3952 156.527 44.7842C156.216 44.1402 155.836 43.5421 155.397 43.0036C149.764 36.1116 141.155 43.3443 137.039 46.8287L136.285 47.4553C131.029 51.3684 125.879 55.8311 121.743 59.4145C117.608 62.9978 113.463 66.7021 109.182 70.7361C100.345 63.0788 90.8545 56.4504 80.8529 50.9507L79.6934 50.3571C70.0312 45.125 52.1562 35.3752 40.8127 47.6092C38.8083 49.6589 37.2661 52.2265 36.316 55.0959C35.366 57.9652 35.0359 61.0523 35.3536 64.097C36.1072 70.923 40.0977 77.2873 45.982 81.0246C50.7068 83.9924 55.8471 84.6739 60.369 85.2894L62.8425 85.6302L65.6832 86.0699C71.297 86.9272 76.6015 87.7296 81.8384 89.0816C84.3313 89.7302 86.9691 90.5106 89.7035 91.4119C84.3504 97.8334 79.4221 104.696 74.9589 111.945L74.2343 113.121C68.1278 123.014 56.7457 141.579 65.5383 156.308C66.9879 158.887 68.961 161.032 71.2916 162.563C73.6222 164.093 76.2419 164.964 78.9301 165.102H79.5871C85.3845 165.102 91.2591 161.694 95.3462 155.868C98.7086 151.087 100.177 145.481 101.395 140.48C101.627 139.567 101.859 138.655 102.1 137.754L102.883 134.731C104.535 128.554 106.1 122.728 108.129 117.067C109.849 112.278 111.784 107.593 113.927 103.03C123.454 109.123 131.796 117.349 138.449 127.213C139.765 129.264 141.431 130.991 143.348 132.291C144.603 133.103 146.02 133.538 147.464 133.555C148.682 133.578 149.887 133.274 150.982 132.666C152.077 132.059 153.03 131.166 153.764 130.059C158.808 122.629 151.136 114.143 147.454 110.065C147.155 109.746 146.923 109.483 146.778 109.318C142.546 104.075 137.831 99.0183 134.034 94.9513C130.971 91.6537 127.753 88.3562 124.371 84.9047C131.408 74.4899 140.306 65.8918 150.479 59.6783ZM67.3355 71.9123L64.5141 71.4726L61.828 71.0989C58.166 70.6042 54.6973 70.1316 52.1658 68.5378C49.6343 66.9439 48.069 64.5697 47.8178 62.2944C47.7581 61.4762 47.8768 60.6538 48.1633 59.9003C48.4498 59.1468 48.8954 58.4853 49.4604 57.9745C50.9413 56.5602 52.8452 55.8513 54.7746 55.996C60.9488 55.996 69.5191 60.6675 74.2729 63.2506L75.4324 63.8772C83.571 68.3512 91.3415 73.6448 98.6507 79.6945C94.0381 77.9246 89.3491 76.4241 84.6018 75.1989C78.8142 73.649 72.9782 72.7696 67.3355 71.9123ZM96.5346 111.67C94.2833 117.935 92.5635 124.344 90.8919 130.554L90.0706 133.61C89.8097 134.588 89.5585 135.577 89.2976 136.578C88.2735 140.612 87.3072 144.415 85.5101 146.976C83.8482 149.339 81.5292 150.834 79.5582 150.834H79.3939C78.6747 150.772 77.9804 150.507 77.3733 150.064C76.7662 149.62 76.2653 149.013 75.9155 148.295C71.9926 141.7 80.4567 127.927 84.5342 121.299L85.2685 120.101C90.4417 111.72 96.2621 103.881 102.66 96.677C100.396 101.553 98.3515 106.557 96.5346 111.67Z" fill="url(#paint0_linear_32_15)"/>
<defs>
<linearGradient id="paint0_linear_32_15" x1="96.362" y1="40.1318" x2="96.362" y2="165.102" gradientUnits="userSpaceOnUse">
<stop stop-color="#304E3F"/>
<stop offset="1" stop-color="#304E3F" stop-opacity="0.18"/>
</linearGradient>
</defs>
</svg>
