<svg width="48" height="48" viewBox="0 0 48 48" fill="none" xmlns="http://www.w3.org/2000/svg">
<path d="M24.0004 24C24.0004 22.252 26.1264 20.834 28.7504 20.834C31.3744 20.834 33.5004 22.252 33.5004 24C33.6169 23.0603 34.0959 22.2033 34.8354 21.6119C35.5748 21.0204 36.5161 20.7412 37.4584 20.834C38.4007 20.7412 39.342 21.0204 40.0814 21.6119C40.8209 22.2033 41.2999 23.0603 41.4164 24V23.2C41.5037 20.8524 41.1188 18.5111 40.2844 16.315C39.45 14.1189 38.1831 12.1127 36.5589 10.4154C34.9347 8.71802 32.9862 7.3641 30.8289 6.43387C28.6717 5.50364 26.3496 5.01605 24.0004 5C21.6512 5.01605 19.3291 5.50364 17.1719 6.43387C15.0146 7.3641 13.0661 8.71802 11.4419 10.4154C9.81767 12.1127 8.5508 14.1189 7.7164 16.315C6.882 18.5111 6.49706 20.8524 6.5844 23.2V24C6.70088 23.0603 7.17993 22.2033 7.91936 21.6119C8.65879 21.0204 9.60007 20.7412 10.5424 20.834C11.4847 20.7412 12.426 21.0204 13.1654 21.6119C13.9049 22.2033 14.3839 23.0603 14.5004 24C14.5004 22.252 16.6264 20.834 19.2504 20.834C21.8744 20.834 24.0004 22.252 24.0004 24Z" stroke="black" stroke-width="2" stroke-linecap="round" stroke-linejoin="round"/>
<path d="M24 5V1" stroke="black" stroke-width="2" stroke-linecap="round" stroke-linejoin="round"/>
<path d="M10 47C10 45.4087 10.6321 43.8826 11.7574 42.7574C12.8826 41.6321 14.4087 41 16 41C17.5913 41 19.1174 41.6321 20.2426 42.7574C21.3679 43.8826 22 45.4087 22 47H10Z" stroke="black" stroke-width="2" stroke-linecap="round" stroke-linejoin="round"/>
<path d="M12 34C12 35.0609 12.4214 36.0783 13.1716 36.8284C13.9217 37.5786 14.9391 38 16 38C17.0609 38 18.0783 37.5786 18.8284 36.8284C19.5786 36.0783 20 35.0609 20 34C20 32.9391 19.5786 31.9217 18.8284 31.1716C18.0783 30.4214 17.0609 30 16 30C14.9391 30 13.9217 30.4214 13.1716 31.1716C12.4214 31.9217 12 32.9391 12 34Z" stroke="black" stroke-width="2" stroke-linecap="round" stroke-linejoin="round"/>
<path d="M27 47C27 45.4087 27.6321 43.8826 28.7574 42.7574C29.8826 41.6321 31.4087 41 33 41C34.5913 41 36.1174 41.6321 37.2426 42.7574C38.3679 43.8826 39 45.4087 39 47H27Z" stroke="black" stroke-width="2" stroke-linecap="round" stroke-linejoin="round"/>
<path d="M29 34C29 35.0609 29.4214 36.0783 30.1716 36.8284C30.9217 37.5786 31.9391 38 33 38C34.0609 38 35.0783 37.5786 35.8284 36.8284C36.5786 36.0783 37 35.0609 37 34C37 32.9391 36.5786 31.9217 35.8284 31.1716C35.0783 30.4214 34.0609 30 33 30C31.9391 30 30.9217 30.4214 30.1716 31.1716C29.4214 31.9217 29 32.9391 29 34Z" stroke="black" stroke-width="2" stroke-linecap="round" stroke-linejoin="round"/>
<path d="M24 24V34.46" stroke="black" stroke-width="2" stroke-linecap="round" stroke-linejoin="round"/>
</svg>
