<svg width="48" height="48" viewBox="0 0 48 48" fill="none" xmlns="http://www.w3.org/2000/svg">
<g clip-path="url(#clip0_1_11805)">
<path d="M8 29.0156H2C1.44772 29.0156 1 29.4633 1 30.0156V44.0156C1 44.5679 1.44772 45.0156 2 45.0156H8C8.55228 45.0156 9 44.5679 9 44.0156V30.0156C9 29.4633 8.55228 29.0156 8 29.0156Z" stroke="black" stroke-width="2" stroke-linecap="round" stroke-linejoin="round"/>
<path d="M9 42.0158C30.458 49.1698 22.542 49.2418 47 37.0158C46.3253 36.1079 45.388 35.4291 44.3148 35.0714C43.2417 34.7136 42.0845 34.6943 41 35.0158L32.132 37.9578" stroke="black" stroke-width="2" stroke-linecap="round" stroke-linejoin="round"/>
<path d="M9 31.0156H15C18.4042 31.1359 21.6296 32.5694 24 35.0156H30C30.2926 34.9631 30.5931 34.9754 30.8804 35.0516C31.1678 35.1279 31.4349 35.2662 31.6629 35.457C31.8909 35.6477 32.0743 35.8861 32.2001 36.1554C32.326 36.4247 32.3912 36.7184 32.3912 37.0156C32.3912 37.3129 32.326 37.6065 32.2001 37.8758C32.0743 38.1452 31.8909 38.3836 31.6629 38.5743C31.4349 38.765 31.1678 38.9034 30.8804 38.9796C30.5931 39.0559 30.2926 39.0682 30 39.0156H19" stroke="black" stroke-width="2" stroke-linecap="round" stroke-linejoin="round"/>
<path d="M42.4837 2.30972L20.1697 12.0177L15.6857 9.77572C15.5559 9.71069 15.4136 9.67468 15.2685 9.67019C15.1235 9.6657 14.9792 9.69284 14.8457 9.74972L10.9137 11.4357C10.7636 11.5002 10.6316 11.6005 10.5293 11.7278C10.4269 11.8551 10.3573 12.0056 10.3265 12.166C10.2957 12.3264 10.3047 12.4919 10.3527 12.6481C10.4006 12.8042 10.4861 12.9462 10.6017 13.0617L16.4377 18.8977C16.5759 19.0361 16.7518 19.1309 16.9434 19.1704C17.135 19.2098 17.334 19.1922 17.5157 19.1197L29.1497 14.4657L25.1497 25.1437C25.0793 25.3317 25.0671 25.5365 25.1147 25.7315C25.1623 25.9266 25.2674 26.1027 25.4165 26.2372C25.5656 26.3716 25.7517 26.458 25.9506 26.4852C26.1495 26.5124 26.352 26.4792 26.5317 26.3897L30.4877 24.4117C30.6811 24.3142 30.8381 24.1572 30.9357 23.9637L37.3117 11.1997L44.9817 8.34372C45.3865 8.18576 45.7557 7.94862 46.0677 7.64618C46.3796 7.34374 46.6282 6.98208 46.7986 6.58239C46.9691 6.1827 47.0581 5.75301 47.0604 5.3185C47.0627 4.88398 46.9783 4.45337 46.812 4.05189C46.6458 3.65042 46.4012 3.28614 46.0924 2.9804C45.7837 2.67467 45.417 2.43362 45.0139 2.27137C44.6108 2.10913 44.1794 2.02895 43.7449 2.03553C43.3105 2.04212 42.8817 2.13533 42.4837 2.30972Z" stroke="black" stroke-width="2" stroke-linecap="round" stroke-linejoin="round"/>
<path d="M35.1431 5.50149L24.6571 1.17349C24.4125 1.07238 24.1378 1.07238 23.8931 1.17349L20.4711 2.59949C20.2883 2.67514 20.1321 2.80332 20.0221 2.96779C19.9122 3.13227 19.8535 3.32566 19.8535 3.52349C19.8535 3.72133 19.9122 3.91472 20.0221 4.07919C20.1321 4.24367 20.2883 4.37184 20.4711 4.44749L29.2431 8.07749" stroke="black" stroke-width="2" stroke-linecap="round" stroke-linejoin="round"/>
</g>
<defs>
<clipPath id="clip0_1_11805">
<rect width="48" height="48" fill="white"/>
</clipPath>
</defs>
</svg>
