<svg xmlns="http://www.w3.org/2000/svg" width="362" height="222" fill="none"><path fill="#F0F4FD" d="M0 0h362v222H0z"/><g clip-path="url(#a)"><path fill="#fff" d="M281.908 139.273H147.965c-1.146 0-2.074-.928-2.074-2.074V38.9031h138.091v98.2959c0 1.146-.928 2.074-2.074 2.074Z"/><path fill="#91A0E2" d="M145.891 34.8818v6.5457h138.083v-6.5457c0-1.1455-.929-2.0741-2.075-2.0741H147.965c-1.146 0-2.074.9287-2.074 2.0741Z"/><path fill="#91A0E2" d="M145.545 137.245V34.8754c0-1.3343 1.086-2.4198 2.421-2.4198H281.9c1.334 0 2.42 1.0855 2.42 2.4198V137.245c0 1.334-1.086 2.42-2.42 2.42H147.966c-1.335 0-2.421-1.086-2.421-2.42Zm2.421-104.098c-.954 0-1.729.7754-1.729 1.7284V137.245c0 .953.775 1.729 1.729 1.729H281.9c.953 0 1.729-.776 1.729-1.729V34.8754c0-.953-.776-1.7284-1.729-1.7284H147.966Z"/><path fill="#F36A8D" d="M151.602 39.2383c1.174 0 2.125-.9509 2.125-2.1239 0-1.1731-.951-2.124-2.125-2.124-1.173 0-2.124.9509-2.124 2.124 0 1.173.951 2.1239 2.124 2.1239Z"/><path fill="#FDC93A" d="M158.619 39.2383c1.174 0 2.125-.9509 2.125-2.1239 0-1.1731-.951-2.124-2.125-2.124-1.173 0-2.124.9509-2.124 2.124 0 1.173.951 2.1239 2.124 2.1239Z"/><path fill="#C0D625" d="M165.637 39.2383c1.174 0 2.125-.9509 2.125-2.1239 0-1.1731-.951-2.124-2.125-2.124-1.173 0-2.124.9509-2.124 2.124 0 1.173.951 2.1239 2.124 2.1239Z"/></g><path fill="#E6DCB6" d="m219.721 102.126-7.523-9.9594-2.014 37.0844 9.537-27.125Z"/><path fill="#F1ECD5" d="m215.119 96.3425-.111 1.275-.665-.7391 1.497.1293"/><path fill="#F1ECD5" d="M215.821 88.3417c-4.029-.3511-7.652 2.1249-8.909 5.7835v.0185l-8.151 23.4293c-5.157.296-9.445 4.324-9.907 9.627-.518 5.821 3.789 10.939 9.611 11.438 5.009.443 9.519-2.698 10.98-7.317l4.436-12.602 4.916-14.025c2.662-1.275 4.603-3.88 4.861-7.0211.407-4.7303-3.105-8.9062-7.837-9.3312Z"/><path fill="#FD6D99" d="m220.312 52.9941-1.386 1.2934c0 .0185.019.0555.019.0739 0 0 .203.5913.536 1.5706 2.513-.0924 4.011.2772 4.011.2772 5.803 3.3444 11.164 12.0104 11.866 13.9136s2.514 4.8596 3.918 5.802c1.239.3141 2.496.4435 3.79.1478-.259-.6652-.795-2.8455-.795-2.864-1.682-12.9898-4.51-20.2884-8.355-22.7459-6.136-3.9173-13.604 2.5314-13.604 2.5314Z"/><path fill="#FD6D99" d="M222.512 54.1951s-1.016.1848-3.05 1.7554c.647 1.8847 1.812 5.2291 3.106 8.6105.591 1.5891 1.219 3.1782 1.829 4.6564.925 2.2173 1.812 4.139 2.533 5.2846 1.331-1.1087 3.659-1.1641 5.914-.7391 1.165.2217 2.311.5913 3.272.9978-.333-1.0532-.702-2.6054-.758-4.6379-.222-9.4051-1.349-20.7319-12.846-15.9277Z"/><path fill="#FD5377" d="M236.115 74.7607c-.961-.425-2.107-.7761-3.271-.9978-.074-5.1737 2.421-8.9247 2.477-9.0171-.019.037.055 5.4325.037 5.3955.018 1.9032.425 3.5662.757 4.6194Z"/><path fill="#FD6D99" d="M234.12 47.3953c-5.231-2.2357-9.427-1.2195-12.089.7761-.554.425-1.053.8869-1.46 1.3673-1.349 1.5706-1.941 3.3814-1.663 4.7303l1.386-1.2934s13.733-6.4117 20.018 15.1331c.573 1.9587.942 2.9195 1.922 5.0814.684 1.1086 1.552 1.8662 2.236 2.3651.98-.4619 1.96-1.201 2.939-2.2727l.019-.0185c-6.451-6.3378-1.701-20.9167-13.308-25.8687Z"/><path fill="#FD5377" d="m228.039 65.3741-5.471-.813c-1.96-5.1553-3.642-10.1997-3.642-10.1997-.314-1.3673.278-3.2151 1.645-4.8041 1.276.0369 2.551.3325 3.679.9238 2.938 1.5521 4.583 4.8596 5.064 8.1302.351 2.3282.129 4.8781-1.275 6.7628Zm19.407 7.9084c-.979 1.0902-1.977 1.8108-2.939 2.2727-.702-.4989-1.571-1.2564-2.236-2.3651 0 .0185-1.275-2.3097-1.922-5.0998.332.3511 2.957 4.0096 7.097 5.1922Z"/><path fill="#F7D24A" d="M216.985 53.6223c.388-1.7923 2.532-2.8455 4.824-2.1988 2.274.6467 3.679 2.3836 3.124 4.2498-2.495.9793-6.654-.9423-7.948-2.051Z"/><path fill="#FBC295" d="M226.32 66.0947c-.739-2.901-10.24-1.9217-7.449 9.3866l1.664 5.8574 9.204-2.4021-3.419-12.8419Z"/><path fill="#060609" d="M218.279 73.4118c2.384-4.4346 6.026-6.2269 7.005-6.8737-.055 1.2011-.517 2.7902-.517 2.7902-.74 2.7901-2.606 5.2106-5.564 7.391l-.924-3.3075Z"/><path fill="#FBC295" d="M226.32 66.0947c2.144-3.3999.517-10.717-6.174-12.3615-6.413-1.5706-12.79 3.3444-12.458 11.6594.259 6.5595 3.716 9.8116 6.544 10.5137 2.883.7206 4.639-.425 4.639-.425s4.972-2.7716 7.449-9.3866Z"/><path fill="#FFFEFF" d="M210.553 67.5544c-.277.0369-.536.0554-.776.0185-1.479-.2218-1.904-1.8847-1.996-3.2336.074-.1294.166-.2217.258-.3326 1.054-1.1087 2.939-.2217 2.514 3.5477Zm10.111-2.7162c-.315 1.7369-1.276 2.7162-2.459 3.1412-.092.0369-.203.0739-.314.0924-.998.2771-2.107.1847-3.068-.1663-.019-1.5706.443-2.7901 1.22-3.4923.074-.0739.166-.1293.24-.2033 1.091-.7575 2.662-.6651 4.381.6283Z"/><path fill="#060609" d="M210.165 66.7414c-.074.3141-.203.5913-.388.813-1.479-.2217-1.904-1.8847-1.996-3.2336.074-.1293.166-.2217.258-.3326.185 0 .37.0185.555.0555 1.146.2956 1.848 1.4966 1.571 2.6977Zm8.373.2217c-.111.4435-.333.8315-.647 1.1271-.998.2772-2.107.1848-3.068-.1663-.019-1.5705.443-2.7901 1.22-3.4922.074-.0739.166-.1294.24-.2033.222-.0184.444 0 .684.0555 1.164.2771 1.867 1.4782 1.571 2.6792Z"/><path stroke="#000" stroke-miterlimit="1.213" stroke-width=".44815" d="M208.797 66.8892c.278.2218.573.3696.832.462m8.041.351c-.481.1479-.962.2218-1.387.2587"/><path stroke="#060609" stroke-linecap="round" stroke-linejoin="round" stroke-miterlimit="1.213" stroke-width=".56033" d="M208.279 62.5285c.647-.6652 1.904-.7576 2.366.3141m4.658.1478c.592-.9608 2.477-1.8477 4.399-.4619m-8.04 7.1139-1.165-.9424 1.313-1.3304"/><path fill="#FD6D99" d="M215.655 70.9543c-1.33 1.4412-3.604-.1663-5.064.8869.351.037 1.164.5913 2.07.8685 1.109.3141 2.347.2217 2.994-1.7554Z"/><path fill="#F1ECD5" d="m232.752 83.0386-12.643 3.1228-1.478-5.9683 12.642-3.1227 1.479 5.9682Z"/><path fill="#FD6D99" d="m229.074 66.0023-4.103-2.8456s-.13.9054-.351 2.0141c-.684-1.6076-1.165-1.4967-1.276-3.3075 0 .6098-.203 1.5706-.85 2.2912.148-.8315.222-3.2336-.85-4.49.406.7576.277 2.1619-.296 2.6607-.739-.5358-1.571-1.4597-1.627-3.1227-.221 1.4228-1.478 1.9217-1.848 3.6216-1.017-.9423-1.608-2.3836-1.756-4.2313-.129 1.589-1.386 4.2683-2.92 5.1737-.536-1.1087-.721-3.0858-.37-4.8966-.351 1.0717-1.386 2.5499-3.013 3.9173 0-1.5891.037-2.7717.629-3.9357-1.257.813-2.514 3.2151-2.514 3.2151.813-6.3748 6.543-9.2573 10.092-9.2204 8.41.0739 12.421 7.2063 11.053 13.1561Z"/><path fill="#FBC295" d="M225.358 65.6697c.185-2.051 4.011-3.4368 5.435-.6097 1.09 2.1434-.888 4.6194-4.011 4.0096-1.608-1.5706-1.424-3.3999-1.424-3.3999Z"/><path stroke="#060609" stroke-linecap="round" stroke-linejoin="round" stroke-miterlimit="1.2128" stroke-width=".56031" d="M229.758 65.8545c-.019-1.1826-2.422-2.1065-3.161.776"/><path stroke="#060609" stroke-linecap="round" stroke-linejoin="round" stroke-miterlimit="1.2128" stroke-width=".56031" d="M226.744 66.1871c.943.1108 1.719.8869 1.424 1.8108"/><path fill="#F1ECD5" d="M207.522 92.8688c.407-4.7488 4.602-8.2411 9.334-7.8346 4.75.4066 8.244 4.601 7.837 9.3312-.406 4.7488-4.602 8.2406-9.334 7.8346-4.75-.407-8.262-4.5825-7.837-9.3312Z"/><path fill="#F1ECD5" d="M244.656 98.6892h.074c4.88.425 9.186-3.1782 9.611-8.0562.241-2.7347-.979-6.4487-2.791-8.2411l.019-.0184c-1.405-1.3489-3.198-2.2728-5.213-2.6054-13.566-2.2912-25.84 2.4575-33.233 5.6911-1.756.7576-3.198 2.051-4.196 3.6401 1.405 5.5248 2.865 11.2347 2.865 11.2347l3.124 15.096 4.769 23.319h35.636l-10.665-40.0598Z"/><path stroke="#060609" stroke-linecap="round" stroke-linejoin="round" stroke-miterlimit="1.2128" stroke-width=".56031" d="m211.7 101.461 3.216 13.969m9.612-33.7217c-1.387.2956-3.401.8684-4.917 1.3303"/><path fill="#A39ECC" d="M250.404 112.972c-.832 2.661-5.73 3.142-8.466.943 3.494 3.529 4.824 9.682-.869 11.345-3.548 1.035-7.8-3.049-7.911-7.557-.868 4.582-5.692 6.393-8.225 4.564-.295-.204-.536-.444-.739-.703-1.922-2.383-.092-6.467 3.364-7.538-3.604 1.09-6.321.609-7.948-.666-1.423-1.127-1.996-2.901-1.553-4.767.962-4.009 5.231-4.231 8.115-2.735-4.03-3.307-4.917-8.9242.794-11.2709 6.95-2.864 10.407 5.1922 9.834 8.0929 2.033-4.6191 6.303-4.9332 8.428-2.7898.093.0924.185.1848.259.2958 1.959 2.383.887 6.541-3.567 6.929 3.53-.314 6.062.499 7.449 1.848 1.146 1.053 1.497 2.513 1.035 4.009Z"/><path fill="#8982BF" d="m249.387 108.926-25.193 12.62c-1.923-2.384-.093-6.467 3.364-7.539-3.605 1.09-6.322.61-7.948-.665 7.726-4.084 18.742-9.904 25.618-13.4887.092.0924.185.1847.259.2957 1.959 2.384.887 6.541-3.568 6.929 3.549-.314 6.1.499 7.468 1.848Z"/><path fill="#FFFEFF" d="M238.39 109.609c.184-2.18-1.424-4.083-3.586-4.286-2.181-.185-4.085 1.422-4.288 3.584-.185 2.181 1.423 4.084 3.585 4.287 2.181.203 4.085-1.404 4.289-3.585Z"/><path fill="#F1ECD5" d="M264.765 128.715v-.018c-.037-.203-.092-.407-.166-.61l-10.683-41.205c-.481-1.8293-1.442-3.4553-2.773-4.7118l-.018.0185c-1.424-1.3859-3.309-2.3097-5.435-2.513-4.879-.425-9.186 3.1782-9.611 8.0562-.111 1.3119.055 2.5869.48 3.751l11.442 39.2831c.129 4.232 3.401 7.798 7.726 8.186 4.658.406 8.78-3.049 9.186-7.705.074-.869.019-1.719-.148-2.532Z"/><path fill="#F1ECD5" d="m245.007 87.5102-.185 2.2173-.924-1.3304 2.403.2033"/><path stroke="#060609" stroke-linecap="round" stroke-linejoin="round" stroke-miterlimit="1.2128" stroke-width=".56031" d="M240.756 81.4865c-1.405 1.8478-2.089 4.4346-1.83 6.9291"/><path fill="#FBC295" d="m227.688 88.6558-13.198 4.0466-5.674 1.4782c-3.253.85-2.81 4.7673 1.46 3.4554.222 1.3858 4.547 3.936 6.414 3.751 2.865.129 7.005-1.294 9.057-3.2891l.018-.0185c1.387 1.1641 3.29 1.6076 5.139 1.0532 2.902-.8869 4.528-3.9542 3.641-6.8551-.887-2.901-3.956-4.5086-6.857-3.6217Z"/><path fill="#FBC295" d="m229.185 93.5894.24.7575-.573-.3141.888-.2771m-21.46.7206c1.83-.7206 4.288 1.8847 1.423 3.2705 0 0-5.23 3.7142-6.21 5.8762-.388.831-.943 2.531-1.239 3.233-.351.869-1.053 2.107-2.088 1.996-.906-.093-1.46-.721-1.553-1.608-.018-.092-.018-.184 0-.277v-.074l.869-3.215s.591-1.626 1.238-2.679c2.218-3.7141 5.73-5.8021 7.56-6.5227Z"/><path fill="#FD6D99" d="M200.277 103.641c.647.277.554 1.109.443 2.162-.092 1.053-.757 1.866-1.46 1.792-.259-.018-.48-.147-.647-.351-.018-.092-.018-.184 0-.277v-.074l.869-3.215c.277-.129.554-.129.795-.037Z"/><path fill="#FBC295" d="m206.561 110.33-1.053-6.947c.517-.703.37-1.904.296-2.162-.37-1.2938-1.96-2.3655-2.736-2.0329-1.109.4804-1.682 1.6629-1.423 2.7899l.832 6.56.425 2.42c.037.185.092.351.166.499.351.721 1.146 1.146 1.978.998.148-.018.277-.074.406-.129.795-.296 1.257-1.127 1.109-1.996Z"/><path fill="#FD6D99" d="M203.77 111.568c-.222.055-.462.019-.684-.092-.074-.148-.13-.314-.167-.499l-.425-2.421c.13-.148.296-.24.481-.277.665-.166 1.386.443 1.608 1.367.222.887-.148 1.756-.813 1.922Z"/><path fill="#FBC295" d="m209.518 98.0055-5.083 4.5635c-.721.647-1.83.592-2.496-.129-.647-.721-.591-1.829.13-2.4944l4.972-4.4531c1.737-1.4043 4.417.6652 2.477 2.513Z"/><path stroke="#060609" stroke-linecap="round" stroke-linejoin="round" stroke-miterlimit="1.2128" stroke-width=".56031" d="m202.494 99.5576 5.324-4.7672"/><path fill="#FBC295" d="m210.868 110.533-2.902-5.377c.296-.831-.204-1.921-.37-2.143-.739-1.127-2.569-1.663-3.216-1.127-.924.776-1.109 2.088-.536 3.086l2.588 5.062 1.127 2.199c.074.167.185.296.296.425.554.573 1.442.758 2.181.37.129-.074.24-.148.351-.24.684-.555.887-1.479.481-2.255Z"/><path fill="#FD6D99" d="M208.557 112.529c-.203.111-.444.148-.665.111-.111-.13-.222-.259-.296-.425l-1.128-2.199c.093-.166.222-.314.37-.425.592-.351 1.46.018 1.941.831.462.813.37 1.756-.222 2.107Z"/><path fill="#FBC295" d="m213.27 98.6337-6.802 6.0973c-.721.647-1.83.592-2.495-.129s-.592-1.829.129-2.494l6.802-6.0981c2.015-1.8108 4.436.8315 2.366 2.6238Z"/><path stroke="#060609" stroke-linecap="round" stroke-linejoin="round" stroke-miterlimit="1.2128" stroke-width=".56031" d="M203.659 102.847c.351-1.201 6.525-6.5969 6.525-6.5969"/><path fill="#FBC295" d="m213.659 97.5066-7.227 6.4674c-.203.185-.369.388-.499.628 0 0 0 .018-.018.018 0 .019-.019.037-.019.037-.314.555-.406 1.238-.203 1.904.388 1.293 1.756 2.014 3.05 1.626.998-.296 1.645-1.183 1.719-2.162l6.192-4.62c3.456-2.605-.019-6.4114-2.995-3.8984Z"/><path stroke="#060609" stroke-linecap="round" stroke-linejoin="round" stroke-miterlimit="1.2128" stroke-width=".56031" d="M205.711 104.99c.573-1.072 5.711-5.6172 7.948-7.4834"/><path fill="#FBC295" d="m212.863 106.986-2.366-1.091c-.24-.85-1.275-1.459-1.534-1.552-1.257-.499-3.068.093-3.29.906-.314 1.164.277 2.346 1.331 2.845l1.941 1.035 2.181 1.146c.166.092.332.147.499.184.776.167 1.608-.203 1.996-.942.074-.129.111-.259.148-.388.222-.85-.129-1.737-.906-2.143Z"/><path fill="#FBC295" d="m208.095 105.655-.129.518-.13-.37.592.148"/><path fill="#FD6D99" d="M212.105 109.942c-.092.222-.277.37-.48.48-.166-.036-.333-.092-.499-.184l-2.181-1.146c-.037-.185 0-.388.074-.554.277-.628 1.201-.813 2.051-.425.869.388 1.331 1.201 1.035 1.829Z"/><path stroke="#060609" stroke-linecap="round" stroke-linejoin="round" stroke-miterlimit="1.2128" stroke-width=".56031" d="m212.587 106.838-2.237-1.275"/><path fill="#FBC295" d="M233.565 90.4851c-1.072-1.3303-2.735-2.1434-4.565-2.051-3.032.1663-6.47 2.1619-6.303 5.1738.628 1.1825 1.46 2.402 2.144 3.5107h-.019l3.882 5.8944 5.693-4.2499 2.514-4.3422-3.346-3.9358Z"/><path fill="#060609" d="m228.26 102.348-2.384-3.6034 9.501-6.1346 1.552 1.8293-8.669 7.9087Z"/><path stroke="#060609" stroke-linecap="round" stroke-linejoin="round" stroke-miterlimit="1.2128" stroke-width=".56031" d="M225.95 97.9131c1.59-1.5706 2.052-2.8086 2.052-2.8086"/><path fill="#F1ECD5" d="m256.3 128.124.241 4.693-1.849-2.513 4.048-.203"/><path fill="#F1ECD5" d="m257.76 121.842-21.829-28.7146-11.626 8.8326 25.101 33.019c1.608 2.365 4.38 3.844 7.448 3.696 4.677-.24 8.263-4.232 8.022-8.906-.222-4.066-3.253-7.299-7.116-7.927Z"/><path stroke="#060609" stroke-linecap="round" stroke-linejoin="round" stroke-miterlimit="1.2128" stroke-width=".56031" d="m236.079 93.3491 25.322 33.2969m-19.574-1.608 7.56 9.941c1.608 2.365 4.381 3.843 7.449 3.696"/><path fill="#FBC295" d="m177.154 97.4512-3.974-12.5833-.739-2.2727c-.056-.1848-.092-.3881-.092-.5728 0-.0924 0-.2033.018-.2957.111-.6652.573-1.2565 1.275-1.4782.98-.3141 2.034.2217 2.348 1.2011l1.626 5.0074c.592 1.8293 2.533 2.8271 4.362 2.2542 5.231-1.6075-3.216 13.5258-4.824 8.74Z"/><path fill="#FD6D99" d="M174.086 84.9603c-.296.0924-.61.0555-.887-.0924l-.74-2.2727c-.055-.1848-.092-.388-.092-.5728 0-.0924 0-.2033.018-.2956.13-.1663.314-.2957.518-.3696.721-.2402 1.589.388 1.904 1.3673.314.9794.018 2.0141-.721 2.2358Z"/><path fill="#8A82BF" d="m193.771 97.3218-9.815 3.1782c-.887.296-1.83-.203-2.126-1.0717l-1.663-5.1553-6.007-18.5515c-.278-.8869.203-1.8293 1.09-2.1249l9.815-3.1781c.887-.2957 1.83.2032 2.125 1.0901l1.867 5.7835 5.804 17.9048c.277.8869-.203 1.8478-1.09 2.1249Z"/><path fill="#A39ECC" d="m193.771 97.3218-9.815 3.1782c-.887.296-1.83-.203-2.126-1.0717l-1.663-5.1553-6.007-18.5515c-.278-.8869.203-1.8293 1.09-2.1249l9.815-3.1781c.887-.2957 1.83.2032 2.125 1.0901l1.867 5.7835 5.804 17.9048c.277.8869-.203 1.8478-1.09 2.1249Z"/><path fill="#8982BF" d="m193.771 97.3218-9.815 3.1782c-.887.296-1.83-.203-2.126-1.0717l-1.663-5.1553 8.891-16.9624 5.803 17.9048c.278.8684-.203 1.8293-1.09 2.1064Zm-16.617-16.9255-1.423-4.3791c-.166-.5359.111-1.0902.647-1.275l4.399-1.4228c.536-.1663 1.09.1109 1.275.6467l1.423 4.3977c.167.5359-.11 1.0902-.646 1.275l-4.4 1.4227c-.536.1663-1.109-.1293-1.275-.6652Z"/><path fill="#F7D24A" d="M178.91 75.9987c.184.5913-.13 1.2195-.721 1.4228-.592.2032-1.22-.1294-1.424-.7207-.184-.5912.13-1.2195.721-1.4227.592-.2033 1.22.1293 1.424.7206Z"/><path fill="#F1ECD5" d="M181.59 75.1303c.148.4434-.092.9423-.554 1.0717-.463.1293-.943-.0924-1.072-.5544-.148-.4434.092-.9423.554-1.0717.444-.1478.924.0924 1.072.5544Zm-2.181 3.9542c.111.3326-.074.7021-.407.813-.332.1108-.702-.0739-.813-.4065-.111-.3326.074-.7022.407-.813.332-.1109.702.0739.813.4065Zm2.754-.887c.074.2403-.055.4989-.296.5728-.24.074-.499-.0554-.573-.2956-.074-.2402.056-.4989.296-.5728.24-.0739.499.0554.573.2956Zm17.19 48.0785v3.881l-1.497-1.941h3.696"/><path fill="#FBC295" d="m193.253 107.041-11.109 4.139s-4.159-11.7887-4.879-13.7473c-.647-1.7369-.463-5.1922 2.125-6.2824 5.97-2.513 8.188 2.6238 8.188 2.6238l5.675 13.2669Z"/><path fill="#060609" d="M190.628 100.87c-1.553.628-2.828.979-4.658.997 2.847 1.534 5.323.573 5.323.573l-.665-1.57Z"/><path fill="#F1ECD5" d="m199.926 117.573-5.231-14.745-13.789 4.878 8.318 23.467c1.312 4.342 5.342 7.52 10.11 7.52 5.841 0 10.573-4.73 10.573-10.569.018-5.636-4.418-10.255-9.981-10.551Z"/><path stroke="#060609" stroke-linecap="round" stroke-linejoin="round" stroke-miterlimit="1.2128" stroke-width=".56031" d="m203.049 126.387-4.196-11.807"/><path fill="#FBC295" d="M198.354 85.8842c-1.367.9793-2.643 1.663-2.901 1.8293 1.312 1.1271.665 2.9379.24 3.289 1.09.6467 1.072 2.2728.425 2.9749 1.331 2.8456-1.571 5.6726-6.636 7.3176-5.914 1.921-9.223-1.6265-10.387-4.934-1.054-2.9933-2.182-6.0237-.814-7.7975.592.9423 1.812.8869 3.715.1663 5.083-1.9217 11.608-4.6009 13.586-5.8389 3.955-2.476 5.231 1.2195 2.772 2.9933Z"/><path stroke="#060609" stroke-linecap="round" stroke-linejoin="round" stroke-miterlimit="1.2128" stroke-width=".56031" d="M188.355 90.8177c2.809-.9054 5.064-1.9586 7.356-3.1966.481.4065.647 1.2195.499 2.0695m-.499 1.3119c-1.441 1.0902-4.103 2.1803-6.266 2.8271m6.691.1293c-1.183 1.2011-3.401 2.5499-6.118 3.4184"/><path fill="#FD6D99" d="M198.908 83.2973c.352.5913-.037 1.4597-.85 1.9217-.813.4619-1.756.3695-2.088-.2218-.352-.5912.037-1.4597.85-1.9216.813-.462 1.756-.3696 2.088.2217Z"/><g clip-path="url(#b)"><path fill="#000" d="M282.07 189.089H95.2392c-.1423 0-.2576-.114-.2576-.256 0-.141.1153-.255.2576-.255H282.07c.142 0 .258.114.258.255 0 .142-.116.256-.258.256Z"/></g><g clip-path="url(#c)"><path fill="#fff" d="M114.169 67.3563c0 1.0047.812 1.8192 1.814 1.8192h59.064c1.002 0 1.814-.8144 1.814-1.8192V52.8944c0-1.0047-.812-1.8192-1.814-1.8192h-59.064c-1.002 0-1.814.8144-1.814 1.8192v14.4619Z"/><path fill="#B2BCEB" d="M175.046 69.595h-59.063c-1.232 0-2.233-1.0042-2.233-2.2388V52.8944c0-1.2345 1.001-2.2388 2.233-2.2388h59.063c1.231 0 2.233 1.0043 2.233 2.2388v14.4619c0 1.2345-1.002 2.2387-2.233 2.2387Zm-59.063-18.1002c-.77 0-1.396.6278-1.396 1.3996v14.4619c0 .7718.626 1.3997 1.396 1.3997h59.063c.77 0 1.396-.6279 1.396-1.3997V52.8944c0-.7717-.626-1.3996-1.396-1.3996h-59.063Z"/><path fill="#E9D9BB" d="M163.592 57.3164h-42.388c-.347 0-.627-.2818-.627-.6294 0-.3475.28-.6293.627-.6293h42.388c.347 0 .628.2818.628.6293 0 .3476-.281.6294-.628.6294Zm6.234 6.8766h-48.622c-.347 0-.627-.2817-.627-.6293 0-.3476.28-.6293.627-.6293h48.622c.346 0 .627.2817.627.6293 0 .3476-.281.6293-.627.6293Z"/></g><g clip-path="url(#d)"><path fill="#fff" d="M161.219 152.042c0 1.72 1.392 3.114 3.109 3.114h101.206c1.717 0 3.109-1.394 3.109-3.114v-24.754c0-1.72-1.392-3.114-3.109-3.114H164.328c-1.717 0-3.109 1.394-3.109 3.114v24.754Z"/><path fill="#B2BCEB" d="M265.534 155.874H164.328c-2.11 0-3.826-1.719-3.826-3.832v-24.754c0-2.113 1.717-3.832 3.826-3.832h101.206c2.11 0 3.827 1.719 3.827 3.832v24.754c0 2.113-1.717 3.832-3.827 3.832Zm-101.206-30.982c-1.319 0-2.392 1.075-2.392 2.396v24.754c0 1.321 1.073 2.396 2.392 2.396h101.207c1.319 0 2.392-1.074 2.392-2.396v-24.754c0-1.321-1.073-2.396-2.392-2.396H164.328Z"/></g><g clip-path="url(#e)"><path fill="#91A0E2" d="M216.084 151.622c6.561 0 11.881-5.318 11.881-11.878 0-6.56-5.32-11.877-11.881-11.877s-11.88 5.317-11.88 11.877c0 6.56 5.319 11.878 11.88 11.878Z"/><path fill="#fff" d="M216.085 131.539h-.001c-1.292 0-2.341 1.048-2.341 2.34v5.267c0 1.292 1.049 2.34 2.341 2.34h.001c1.293 0 2.341-1.048 2.341-2.34v-5.267c0-1.292-1.048-2.34-2.341-2.34Z"/><path fill="#fff" d="M216.084 144.281c-2.585 0-4.689-2.103-4.69-4.688 0-.088.017-.174.051-.255.033-.081.083-.154.144-.216.062-.062.136-.111.217-.145.08-.033.167-.05.255-.05.087 0 .174.017.255.05.08.034.154.083.216.145.062.062.111.135.144.216.034.081.051.167.051.255 0 1.85 1.506 3.356 3.357 3.356 1.851 0 3.357-1.506 3.358-3.356 0-.177.07-.346.195-.471a.6652.6652 0 0 1 .471-.195c.177 0 .346.07.471.195s.195.294.195.471c0 2.585-2.104 4.688-4.69 4.688Z"/><path fill="#fff" d="M216.085 146.622c-.177 0-.347-.071-.472-.195-.125-.125-.195-.295-.195-.472v-2.34c0-.177.07-.346.195-.471s.295-.195.472-.195c.176 0 .346.07.471.195s.195.294.195.471v2.34c0 .177-.07.347-.195.472-.125.124-.295.195-.471.195Z"/><path fill="#fff" d="M218.426 146.622h-4.682c-.177 0-.347-.071-.472-.195-.125-.125-.195-.295-.195-.472 0-.176.07-.346.195-.471s.295-.195.472-.195h4.682c.176 0 .346.07.471.195s.195.295.195.471c0 .177-.07.347-.195.472-.125.124-.295.195-.471.195Z"/><path fill="#91A0E2" d="M242.059 149.08c4.53 0 8.203-3.671 8.203-8.2 0-4.53-3.673-8.201-8.203-8.201-4.531 0-8.203 3.671-8.203 8.201 0 4.529 3.672 8.2 8.203 8.2Z"/><path fill="#fff" d="M239.846 143.757c-.132 0-.261-.039-.37-.112a.6767.6767 0 0 1-.246-.299c-.05-.122-.063-.256-.037-.385.025-.13.089-.248.182-.341l4.423-4.422a.6652.6652 0 0 1 .471-.195c.177 0 .346.07.471.195s.195.294.195.471c0 .176-.07.346-.195.471l-4.423 4.422c-.062.062-.135.111-.216.144-.081.034-.167.051-.255.051Z"/><path fill="#fff" d="M244.27 143.757c-.087 0-.174-.017-.255-.051-.081-.033-.154-.082-.216-.144l-4.423-4.422c-.062-.062-.112-.136-.146-.216-.034-.081-.051-.168-.051-.256s.017-.175.05-.256c.034-.081.083-.154.145-.217.062-.062.136-.111.217-.144.081-.034.168-.051.256-.051.087.001.174.018.255.052.081.034.155.083.216.146l4.423 4.421c.094.094.157.212.183.342.025.129.012.263-.038.384-.051.122-.136.226-.246.299-.109.074-.238.113-.37.113Z"/><path fill="#91A0E2" d="M190.122 149.07c4.53 0 8.202-3.672 8.202-8.201s-3.672-8.201-8.202-8.201c-4.531 0-8.203 3.672-8.203 8.201s3.672 8.201 8.203 8.201Z"/><path fill="#fff" d="M192.147 144h-6.515c-.177 0-.346-.07-.471-.195s-.195-.295-.195-.471v-4.93c0-.177.07-.346.195-.471a.6652.6652 0 0 1 .471-.195h6.515c.176 0 .346.07.471.195s.195.294.195.471v4.93c0 .176-.07.346-.195.471s-.295.195-.471.195Zm-5.849-1.333h5.182v-3.597h-5.182v3.597Z"/><path fill="#fff" d="M194.612 143.441c-.151 0-.297-.051-.414-.145l-2.402-1.905a.67516.67516 0 0 1-.186-.232c-.043-.091-.066-.19-.066-.29 0-.101.023-.2.066-.29.044-.09.107-.17.186-.232l2.402-1.906c.098-.078.216-.126.34-.14.125-.014.251.008.364.062.113.055.208.14.274.246.067.106.102.229.102.354v3.812c0 .176-.07.346-.195.471a.6652.6652 0 0 1-.471.195Zm-1.33-2.572.663.526v-1.053l-.663.527Z"/><path fill="#F3EAD9" d="M263.121 173.79H76.6508c-2.2802 0-4.1351-1.819-4.1351-4.054V2.49901c0-2.23567 1.8549-4.05455 4.1351-4.05455H263.121c2.28 0 4.135 1.81888 4.135 4.05455V169.736c0 2.235-1.855 4.054-4.135 4.054ZM76.6508-.22312c-1.5452 0-2.8024 1.22116-2.8024 2.72213V169.736c0 1.5 1.2572 2.722 2.8024 2.722H263.121c1.545 0 2.802-1.222 2.802-2.722V2.49901c0-1.50097-1.257-2.72213-2.802-2.72213H76.6508Z"/></g><g clip-path="url(#f)"><path fill="#D2E23D" d="m185.946 179.801-13.87 8.775-84.7931-.017c-2.9839 0-5.8228-.869-8.2331-2.417-2.4102-1.548-4.3801-3.779-5.62-6.492-2.4392-5.35-1.5817-11.621 2.1959-16.119l21.2807-25.318c3.0244-3.6 6.8366-6.463 11.1356-8.37 11.414-5.054 24.334-5.501 36.073-1.252l12.37 4.481c7.143 2.585 12.897 8.022 15.886 15.012l13.575 31.717Z"/><path fill="#E59673" d="M220.2 153.474c3.615-2.811 6.106-2.556 7.694-1.408.585.423 2.329 1.716 2.329 1.716l-7.538 4.051-2.485-4.359Z"/><path fill="#E59673" d="M223.196 155.161c3.615-2.811 6.031-2.44 7.694-1.408.591.365 1.24 1.118 1.576 1.611l-5.632 6.747-3.638-6.95Z"/><path fill="#E59673" d="M236.573 161.543c-.145.649-.771 1.031-1.773.962-.869-.058-1.681-.47-2.277-1.159l-1.825-2.093-2.828.736-2.312-2.249c.441-.504.881-.933 1.304-1.292 2.625-2.22 6.24-1.612 8.025 1.339l1.286 2.121c.371.626.492 1.194.4 1.635Zm-3.755-11.349c-1.854.33-4.108.724-4.907.91-1.889.666-5.325 2.788-7.428 3.976-4.774 13.749-18.042 10.711-7.903-.406.904-.991 4.143-3.559 5.8-4.306 2.097-1.194 6.379-2.394 8.268-3.061 1.1-.255 4.994-.863 6.101-1.032.921-.139 1.767.482 1.923 1.38.215 1.24-.568 2.313-1.854 2.539Z"/><path fill="#E59673" d="M217.772 150.762c-.33.649-.8 1.536-1.489 2.724-1.883 3.246-8.054 11.587-8.054 11.587-3.267-2.244-1.512-7.518-.556-9.066 0 0 1.924-3.559 5.215-6.207.904-.725 1.906-1.386 3.001-1.884.081-.035.162-.064.243-.087.452-.116.927.011 1.263.342.661.649.817 1.715.377 2.591Z"/><path fill="#E59673" d="M232.054 159.079c-3.98.139-6.477 6.231-12.729 9.095-2.856 1.31-6.136 1.396-9.009.121-2.521-1.113-4.357-5.448-3.952-7.929 1.049-6.44 7.086-9.286 10.997-8.717 8.418-2.69 14.693 7.43 14.693 7.43Z"/><path fill="#000" d="M230.675 159.74c-.127 0-.249-.087-.278-.22-.041-.157.052-.313.209-.354.405-.104.863-.208 1.228-.29.174-.04.319-.075.429-.098.156-.035.313.058.347.214.035.157-.058.313-.214.348-.11.029-.261.058-.435.099-.359.081-.811.185-1.211.289-.029.006-.052.012-.075.012Zm-4.299-2.985c-.081 0-.168-.035-.226-.104-.098-.122-.081-.308.041-.406.278-.226.556-.435.84-.62 1.628-1.084 3.667-1.281 5.452-.522.145.064.214.232.15.383-.063.145-.231.214-.382.15-1.605-.684-3.436-.504-4.907.47-.267.174-.533.377-.794.591-.041.035-.104.058-.174.058Zm-2.85-1.553c-.087 0-.174-.041-.232-.116-.093-.128-.07-.313.058-.406 2.277-1.681 4.322-2.324 6.095-1.907.156.035.249.191.214.348-.035.156-.191.249-.347.214-1.594-.377-3.488.232-5.615 1.809-.052.04-.11.058-.173.058Zm-2.492-1.751c-.087 0-.174-.04-.232-.116-.092-.127-.069-.313.058-.405 2.277-1.681 4.323-2.325 6.095-1.907.157.034.25.191.215.347-.035.157-.191.25-.348.215-1.593-.377-3.488.232-5.614 1.808-.052.041-.11.058-.174.058Z"/><path fill="#E26847" d="M233.995 146.577c-.047.168-.151.319-.325.406-.452.231-1.077.429-1.836.533-1.026.139-1.559-.371-1.628-.841.266-.046 1.344-.214 2.537-.4.464-.069.91.053 1.252.302Z"/><path fill="#000" d="M213.936 153.509c-.087 0-.174-.04-.232-.116-.092-.127-.069-.307.058-.406 1.396-1.037 2.723-1.93 3.94-2.666.139-.081.313-.04.4.099.081.139.035.313-.099.4-1.205.724-2.514 1.605-3.893 2.631-.052.041-.11.058-.174.058Z"/><path fill="#E26847" d="M216.046 148.432c-.296.411-.765.869-1.403 1.298-.788.539-1.454.4-1.761.064.904-.725 1.906-1.386 3.001-1.884.081-.035.163-.064.244-.087.075.197.058.417-.081.609Z"/><path fill="#D2E23D" d="M185.854 179.581c-.018.011-.041.029-.064.04-.029-.058-.023-.116.006-.174l.058.134Z"/><path fill="#C0D625" fill-rule="evenodd" d="M165.842 187.237c.075-.052.087.203.116.087-.145-.318-.255-.371-.139-.643-.023-.128-.139-.116-.197-.18.064-.133-.226-.452-.041-.626-.121 0-.017-.168-.139-.226.122-.023.081-.075.018-.11.185-.046.011-.197.121-.267-.116-.034-.11-.139-.075-.266-.058-.07-.07.058-.104-.018.046-.179-.163-.405.046-.533-.168-.069-.191-.539-.075-.661-.186.006-.215-.388-.134-.4-.104-.11-.208-.231-.295-.37.052.011.093.04.145.046-.07-.638-.342-1.107-.325-1.919-.058.012-.087-.011-.11-.052.209-.272-.33-.748.064-.823-.029-.174-.116.006-.185-.11-.029-.4-.186-.661-.087-.904-.128-.197-.11-.307-.226-.562.075-.024.052.092.116.086-.076-.324-.186-.486-.064-.765-.151.041-.139-.162-.261-.168.018.192.052.423-.11.545-.087-.139.087-.232-.012-.278-.162.371.116.522.157.927-.046.006-.075-.005-.104-.017-.035.145.069.284.133.4-.104.69.405 1.414.249 2.075.18.18.232.551.313.864-.162-.029-.104-.389-.272-.412.023.145.179.661.075.765.064-.011.116-.011.127.052.041.087-.052.081-.04.151.191.035.185.614.203.811.005-.029.023-.046.058-.046-.053.075.168.273.069.412-.006-.082-.029-.128-.087-.128-.093.162.151.093.145.261-.075.023-.052-.093-.116-.087.093.284.104.811.209 1.055.11.023.005-.116.116-.093-.012.052.069.168-.006.18-.047 0-.064-.047-.11-.052.069.533.22 1.031.284 1.681-.139.11.115.492.115.684 0 .249.145.637.232.979h.498c-.133-.452-.191-.921-.295-1.345Zm-1.785-8.833c-.075.006-.046-.145-.028-.174.121.012.057.116.028.174Zm1.119 5.454c-.012-.098-.035-.174-.099-.197 0-.04.064-.035.052-.081.024.046.093.185.151.29-.029-.006-.064-.018-.104-.012Zm.22 3.316c-.116.04-.139-.279-.006-.244-.058.099.058.186.006.244Zm-.023 1.06c-.023.105-.047-.052-.012-.069-.093-.006-.075.006-.145-.081 0 .052.035.127-.011.145-.18-.273-.105-.725-.139-1.038-.076-.099-.093.133-.163.029.099-.128-.202-.238-.052-.307.087.017.11.342.232.174-.11-.151-.342-.226-.243-.452-.313.081-.244-.406-.423-.528.052-.093.11-.336-.012-.458.006.255-.029.476-.203.597-.011-.04-.011-.098-.052-.098-.023.203.162.098.151.29.121-.018.017-.209.127-.232.064.272.122.516.087.724.012-.116-.116-.029-.121-.122.023-.034.063-.208 0-.208-.18-.018-.365-.389-.238-.632-.203-.07-.046-.301-.058-.342-.012.099-.127-.006-.145-.046.151-.024.052-.365-.064-.168-.023-.14.053-.186.099-.192-.087-.098-.168-.203-.278-.272.081-.012.11.046.122-.058-.058-.075-.07-.012-.111-.052 0-.029.024-.047.058-.047-.255-.087.041-.429-.081-.481 0 .041 0 .081-.052.081-.011-.156-.035-.324.064-.399-.157-.029.035-.128-.006-.244-.22-.012-.342-.591-.162-.574-.099-.104-.215-.156-.122-.33-.179-.012 0 .237-.087.295-.098-.086-.052-.376-.145-.469.076-.099.128-.174.238-.18-.035-.087-.139-.081-.191-.145 0 .041.023.099-.018.111-.139-.105-.133-.377.07-.4-.017.087.162.087.139.046-.145-.023-.156-.255-.284-.301-.023.162.11.086.104.231-.092.064-.139-.011-.179.105-.018-.209-.041-.307-.11-.441.063-.011.058.087.139.047.011-.134-.122-.047-.151-.116.029-.07.023-.163.104-.192-.22-.26-.162-.481-.249-.875-.15-.023.035.203-.064.22-.243-.353-.272-.759-.486-1.118.046 0 .064.046.11.052-.18-.186-.041-.359-.197-.388.075-.528-.232-1.618-.116-2.099-.046-.261-.307-.574-.098-.794-.151-.116-.07-.469-.197-.568 0 .052-.053.012-.07-.023.046-.568-.307-.782-.307-1.432-.162.047.122.429-.133.412.034.342-.058.464-.006.777-.012-.041-.012-.099-.052-.099 0 .029.011.07-.023.075-.006-.162-.058-.26-.151-.289.069.243.151.556.064.799-.157-.04-.07-.515-.157-.539-.023.221-.069.424-.052.679-.122-.093.006.104-.116.092-.11-.139-.046-.232-.087-.336.012.041-.075.128-.092.046.023-.115-.012-.115-.041-.237.041-.012.122.122.133.011-.104-.121-.289-.347-.145-.469-.063 0-.063.052-.121.058-.012-.087-.023-.168-.07-.203.035-.006.064-.012.099-.017-.099-.197-.174-.284-.296-.371.012-.122.006-.545-.133-.58-.017.186.185.412-.006.568.093.464.116 1.02.22 1.304.064.18.018.464.07.62.052.163.174.4.023.528.052-.116-.093-.226-.023-.348-.058-.069-.075.058-.104-.017-.076-1.728-1.049-3.472-1.234-5.368-.29.064-.261-.486-.215-.666-.197-.058-.035-.313-.185-.319-.058.099.058.325-.076.365-.058-.011-.185.076-.202 0-.128-.406.098-.69-.076-.869.041.214-.173.429-.104.759-.012-.046-.272-.006-.162.029.22-.075.064.151.203.215.011.121-.07.168-.168.202-.157-.081-.174-.371-.313-.475-.134.029-.168.151-.093.261-.168.568.284 1.408.301 1.994.012.069-.081.058-.04.151.087.301.342.765.15 1.101.087.203.081.388.105.62.087 0 .127.064.133.191-.075-.046-.041.012-.128.023-.029-.086-.046-.185-.104-.231-.04.052.029.179-.104.156-.035-.232-.191-.284-.249-.487 0 .07-.081.076-.035.18.209.116.255.481.521.51-.011.081-.144.157-.214.104-.127.29.099.661.023.951-.121.023-.139-.104-.226-.139.023.249-.092-.023-.168-.006.139.162.168.493.255.73-.104 1.786.626 3.71.701 5.385.162.475.261.991.354 1.316.179.174.324.568.26.765.093.081.168.481.215.695-.023-.052-.035.105-.076.128-.058-.284-.04-.493-.22-.527.012-.041.023-.082.047-.116.011.023.011.069.046.063.006-.232-.203.081-.249-.098.168-.052-.076-.232.162-.238.035.104-.052.151.064.168-.035-.307-.133-.591-.191-.742-.099.139.098.354.086.516-.034.041-.115.052-.15.099-.052.197.087.342-.052.469-.186-.452.046-.388-.018-.701.006.017-.017.04-.034.006-.064-.215-.029-.325-.116-.51.034-.087.202-.354-.052-.308.052.128.086.296-.041.36-.012.307.266.434.174.643-.035-.145-.104-.243-.215-.284.006.151.151.087.145.261-.046 0-.063-.046-.11-.052.087.151.191.435.052.521-.104-.278-.162-.527-.255-.73.047-.006.122-.029.058-.046-.023.006-.04.006-.063.011-.093.331.202.423.011.667-.006-.157-.139-.278-.069-.412-.186-.029-.273-.359-.261-.556-.151.51.301.817.406 1.235-.111.052-.157-.221-.244-.064.267.44.075 1.13.162 1.559-.185-.388-.295-.736-.283-1.078-.012-.11-.082.104-.105-.018.07-.295-.127-.84-.278-1.257.046.006.064.034.099-.018-.273-.168-.151-.591-.267-.8-.006.029.012.07-.023.076-.012-.522-.122-1.206-.377-1.664.041-.006.087-.017.128-.023-.215-.51-.487-1.269-.417-1.907-.07.018-.11-.011-.116-.087-.157-1.478-.765-3.112-.893-4.503 0 .028-.011.046-.052.046.076-.672-.092-1.217-.202-1.803.034-.081.121-.127.168-.203-.139.024-.064.064-.215.105.099-.29.029-.661-.092-.939.034-.006.063-.012.098-.018-.156-.185-.243-.446-.185-.649-.018.018-.047.023-.082.029-.057-.174-.098-.319.006-.353-.046-.087-.046-.209.052-.29-.052-.128-.156.029-.208-.035-.07-1.327-.412-3.107-.73-4.533.156 1.183.284 2.371.597 3.571-.093.011.075.22-.07.185.22.644.099 1.554.365 2.162-.035.012-.093.012-.093.052.122-.052.139.053.186.111-.133.092.052.318-.081.51.15.023.075.463.058.55.052.029.127.012.144.081-.115.041.041.169-.057.255.162.076.104.273.173.429-.191.064-.058.255-.029.429.058.07.07-.058.105.018.063.887.284 1.721.318 2.701-.011-.023-.011-.07-.046-.064-.006.11.098.052.093.162-.087.012-.058.07-.128.023.093.151.052.377.058.557.11.023.07-.064.116-.093 0 .087.07.064.064.168-.064.012-.058-.087-.139-.046-.018.168.127.098.11.261-.157.006-.006.179-.087.295.133.047.133.064.208.035-.011.099-.023.168.064.203-.035.006-.064.012-.098.017.04.064.208.313.063.377.018-.156-.185-.272-.081-.481-.26.058.163.667-.063.823-.168-.753-.209-1.345-.325-2.133-.058-.006-.075.064-.098.017.011-.063-.076-.197 0-.208.087.023-.058.156.087.127-.012-.174-.093-.492-.128-.579.006.069-.052.237-.145.133.052-.632-.179-1.351-.249-1.895-.104-.789-.156-1.594-.243-2.464.023 0 .04-.006.063-.011-.202-.296-.028-.615-.243-.841.012-.098.029-.197.128-.232-.029-.058.005-.208-.07-.203.041.151 0 .238-.122.267-.046-.191-.11-.701-.092-.939-.174-.301-.151-.811-.313-1.078-.064.214.232.632-.081.719.04-.226-.209-.36-.134-.609-.11.029-.121-.052-.098-.197-.29-.116-.11-.684-.324-.933.063-.093.086-.215.11-.336-.11-.006-.024.133-.122.058-.006.063.075.197 0 .208-.185-.73-.354-1.252-.487-1.895-.301.058-.121-.359-.208-.458-.122.18-.076-.278-.105-.406-.063-.307-.214-.637-.301-.794-.127.18.116.336.058.557-.075 0-.145-.012-.18-.076.053-.034-.034-.232-.133-.191.075.186.041.29.012.458-.128-.186-.371-.412-.209-.667-.168-.121-.145-.382-.243-.666-.168.087-.168-.244-.209-.458-.174-.145-.22.029-.307-.232-.052.099.058.151 0 .209-.162-.041-.33-.076-.353-.325.046 0 .063.047.11.052-.047-.174-.168-.365-.232-.382.052-.168-.035-.122-.075-.232-.064-.18.011-.475-.191-.533-.053.139.098.289-.076.365-.11-.116.052-.238-.069-.232-.076.116.116.429-.058.469l-.035-.208c-.098.011-.064.197-.185.104.029.046-.006.186.063.168-.017-.075.006-.116.081-.122.018.087.029.279.035.418-.237-.209-.324-.783-.347-1.072-.064-.018-.139-.024-.18-.076.023.157.046.319.087.128.035.127-.041.168-.093.226-.197-.221.006-.197-.069-.412-.006.128-.052.186-.151.099-.012.313.006.724.093.939-.22.156.179.689-.168.805.011.14.197.024.197.18-.029.116-.093.209-.11.336.121.076.104.29-.006.354-.006-.047-.064-.023-.076-.058.082-.145-.005-.493-.104-.615.041.25.018.58.133.789 0-.041-.023-.099.018-.11.006.104.093.092.098.197-.069.034-.116-.081-.092.052.04.04.098.052.121.122-.058.237-.052.591.07.799-.22.354.243.963-.186 1.09.122.267.18.545.076.835.011.064.11.006.116.087-.151.307.202.684.173 1.031-.133 0-.023-.347-.168-.22.209.47.012.91.082 1.293-.076 0-.058-.145-.157-.116.029.104.006.348.081.481-.04.017-.052.058-.121.058.115.243.011.487-.006.777.081.034.11-.111.127-.024l.035.209c-.052-.035-.127-.023-.122.058.105.284.076.661.255.91-.139-.081-.017.093-.017.11 0 .006-.064.006-.064.012-.064.545.423 1.553.272 1.82.064-.07.232.116.145.261-.081.04-.075-.058-.139-.047.197.823.273 1.745.452 2.713.006-.029-.011-.07.023-.075.035.463-.029.666.105 1.043 0 .353.15.985.162 1.171.011-.035.035-.209.081-.122-.151.406-.093.719.006 1.235-.151.063-.093.434.069.411 0-.116-.04-.168-.098-.197.04-.052-.029-.18.104-.156.029.173.157.718-.023.463.208.51-.006.713.162 1.171-.301.139.064.736-.11.725.104.11.116.313.012.458-.134-.284-.105-.499-.215-.673.029.11.041.209-.023.249.133.134.145.29.075.447.145-.029.041.133.029.174.116.023.006-.116.116-.093.093.214.087.498.023.736-.011-.064-.04-.11-.086-.128.081.186-.058.429.139.435.005-.075-.076-.22-.006-.243.098.237.087.423.035.591-.006-.046-.035-.249-.053-.133-.005.168.076.203.116.295-.179.389-.052.62-.063.997.127.029.127.238.168.394-.047.006-.07.029-.093.053-.081.023-.046-.128-.145-.082.017.139.122.441.012.667.081.075.226.475.029.562-.07-.237-.139-.44-.099-.585-.116-.018-.058-.719-.237-.632.04-.041.092-.07.075-.157-.058-.04-.122-.139-.232-.208.238-.023-.145-.186.058-.255.012-.116-.098-.058-.122-.122.018-.098.093-.151.093-.261-.377-.742-.237-1.669-.44-2.428 0 .179.046.394-.052.504-.018-.058.063-.186-.035-.203-.018.064.017.174-.029.214-.087-.173.064-.33 0-.388.017.203-.122.012-.128.023-.046.076.064.168-.052.29.064 0 .064-.052.122-.058 0 .07-.075.081-.075.157.411.423.231 1.217.492 1.75-.162.058-.052.162.023.139-.023.163-.087.197-.156.273.243.104.075.562.255.73-.162.243.145.69.156.927 0-.029.018-.046.058-.046.035.122.081.185.012.278-.093-.069.04-.069.005-.179-.179.266.029.608.041.956h.081c-.017-.081-.006-.203-.011-.302.133-.028.052.267.15.29v.012h6.402c-.011-.139-.005-.261.024-.325-.058-.081-.087-.098-.174-.04-.041-.122-.023-.197.064-.221-.186-.104-.087-.336-.053-.521-.023-.122-.092.093-.104-.018-.017-.087.017-.046.058-.046-.017-.127-.156-.081-.145-.261.087.018.18.018.296-.017-.018-.076-.139.011-.203 0-.058-.145.069-.145.058-.255-.133.075-.394-.116-.174-.255.046.116-.012.15-.029.214.081-.017.087-.081.162-.029-.116-.15-.04-.174-.023-.348-.075 0-.191-.069-.29.053.029-.116.035-.255.07-.366.081-.011.081.105.098.198.018.058.11-.07.151-.093-.029-.076-.046.052-.104-.018 0-.081.029-.139-.006-.243.052-.07.041-.006.127-.023-.133-.203-.336-.064-.347-.296-.041.023-.058.052-.047.116-.336-.336-.04-.95-.307-1.217.053-.122.093-.064.006-.18.145-.087.226.029.313.139 0-.04 0-.075-.006-.116.11.024.087 0 .157-.063-.052-.11-.168.121-.232.005.081-.063-.11-.278-.012-.457-.017-.047-.058.005-.058.046-.092-.041.076-.139.024-.249-.024.029-.041.069-.047.116-.098-.006.018-.076-.023-.14-.029.006-.017.047-.023.076-.087 0-.058-.168-.133-.191.058-.064.133-.203-.006-.25.069-.475 0-.968-.076-1.431.035-.006.064-.012.099-.018-.18-.313-.156-.626-.226-.95.284.203.168.649.272 1.014.052.197.215.342.197.568-.121.052-.052-.174-.133-.191-.04.029.029.087-.006.174.388.295.273.991.383 1.489.092.406.295.736.307 1.044-.029.029-.018.087-.087.087.11.104.023.26.069.411-.098.064-.087-.023-.04.145-.076-.052-.081.012-.162.029-.041-.087.058-.075.081-.122-.058-.04-.105-.098-.186-.11.012-.069.087-.093.105-.162-.024-.07-.099-.052-.122-.122-.093.087.04.325-.093.441.168.203.429.15.51.44.075-.035.052-.139.064-.22.203.226.052.51.243.666-.023.053-.011.134-.075.157.04.093.203.284.093.336.011.064.11.006.115.087-.173.261.203.678.093.939.133.11.191.388.191.574h7.127c-.029-.151.092-.319.029-.383Zm-9.213-9.552c-.086.012-.104-.151-.069-.203.139-.029.058.151.069.203Zm-6.211-15.737c-.069-.011-.063-.208-.04-.237.064-.012.058.087.139.046.035.104-.041.133.006.244-.041 0-.041-.058-.052-.099-.029 0-.047.017-.053.046Zm.035 7.367c0-.058.006-.197-.04-.237.029-.145.185.255.04.237Zm.076 1.044c0-.18-.076-.255-.128-.365.064-.041.093.162.11.052.047.017.133.324.018.313Zm1.141-7.315c.041 0 .058-.018.058-.047.069.024.093.122.104.232-.093-.005-.11-.121-.162-.185Zm.012 18.588c.156.087.092.238.173.429-.092-.075-.226-.278-.173-.429Zm-.348 4.504c-.087-.046-.064-.267-.058-.342.104.058.041.244.058.342Zm.394.956c0 .082-.035.186.04.244-.023.087-.243-.238-.04-.244Zm.179-.915c-.04-.099.012-.128 0-.209.076.012.145.209 0 .209Zm1.148-21.255c.005-.145-.029-.139-.052-.307.081.023.22.301.052.307Zm4.548 20.148c-.099-.012-.075.063-.157.063-.011-.092.076-.104.105-.156.04 0 .04.058.052.093Zm-.035-.203c.017.098-.168.11-.22.069.006-.133.122-.046.22-.069Zm-.875-5.994c.284.192.145.684.273 1.015-.238-.186-.215-.742-.273-1.015Zm1.252 5.681c-.006-.047-.012-.093-.023-.139.081-.024.115.029.121.121-.029.006-.064.012-.098.018Zm.944 1.64c-.127-.012-.046-.133-.075-.232.116-.006.081.157.075.232Zm3.389-10.839c-.127-.029-.075-.214-.075-.267.099-.017.116.209.075.267Zm2.903 10.341c-.006.058-.098.046-.04.144-.093.012-.081-.133-.105-.231.07 0 .081.087.145.087Zm-.046.712c-.139-.028-.099-.324-.11-.44.04.145.127.261.11.44Zm.011-.324c.082.006.157.11.099.197-.052-.046-.139-.128-.099-.197Zm.174.817c-.069.018-.035-.122-.063-.168-.07.006.005.128-.006.18-.116-.076-.052-.151-.047-.273.087.058.151.145.116.261Zm-.498-5.17c.035.006.058 0 .075-.012-.023 0-.052.006-.075.012Zm-9.062-11.14c.006-.006.006-.012.006-.024 0 .006 0 .012-.006.024Z" clip-rule="evenodd"/><path fill="#D2E23D" d="M218.699 172.063s-18.222 17.197-23.176 21.666c-5.521 4.985-10.614 6.759-15.95 6.741-3.5-.023-6.837-1.061-9.664-2.886-2.828-1.82-5.151-4.434-6.617-7.611l-12.456-26.923 21.344-9.825 7.874 20.2c.324-.197 1.292-.771 2.485-1.49 1.478-.886 3.315-1.982 4.757-2.846.574-.342 7.353-4.399 10.678-6.358.701-.412 1.756-1.107 3.083-1.756.892-.435 1.906-.847 3.018-1.136 1.976-.522 4.259-.655 6.709.156 7.608 2.51 7.915 12.068 7.915 12.068Z"/><path fill="#C0D625" fill-rule="evenodd" d="m182.25 171.159-.012-.029c.012 0 .023.005.035.011-.006.006-.017.012-.023.018Zm18.65-9.686c-.29.145-.539.342-.649.667-.058.046-.098-.076-.156-.006-.087.371-.655.44-.869.765.116.093.266-.284.301-.07-.51.255-.649.771-.979 1.055.069.053.151-.087.214.006-.098.07-.249.296-.405.354.023.046.005.087.069.133-.272.122-.353.406-.539.672-.092-.029-.017-.168-.098-.11-.058.052-.116.105-.174.151.07.006.128.07.07.133-.29.174-.528.51-.858.603.18.023-.052.093-.064.104-.005.006.053.053.047.058-.325.516-1.449 1.038-1.512 1.374-.006-.104-.284-.064-.308.122.047.093.105.006.157.058-.748.568-1.46 1.31-2.289 2.011.018-.029.058-.052.035-.081-.353.377-.446.597-.823.817-.249.302-.817.742-.961.893.011-.041.115-.203.017-.157-.156.452-.429.684-.869 1.055.081.157-.226.435-.348.307.081-.098.157-.121.22-.098 0-.07.151-.133.018-.215-.145.134-.638.511-.307.418-.539.295-.493.62-.962.892.162.331-.574.586-.411.702-.168.023-.319.185-.331.388.313-.151.441-.353.649-.429-.104.076-.179.151-.156.232-.209.023-.325.151-.377.33-.104-.127-.133.087-.145.128-.115-.058.076-.104-.04-.162-.232.121-.423.365-.539.614.058-.041.11-.064.162-.046-.197.104-.249.411-.423.278.047-.07.22-.133.18-.203-.249.139-.377.301-.446.487.035-.035.208-.191.139-.075-.11.144-.209.115-.307.173-.116.458-.388.574-.643.905-.128-.064-.278.116-.423.22.034.04.04.075.04.11.052.081.133-.075.186.035-.11.11-.412.295-.481.568-.093.006-.331.139-.412.29l-2.572-6.011c1.477-.887 3.314-1.982 4.757-2.846.573-.342 7.352-4.399 10.678-6.358.701-.412 1.755-1.108 3.082-1.757-.156.168-.278.319-.145.516Zm-1.57 3.733c-.069.006-.162.127-.203.18-.139-.087.273-.319.203-.18Zm-.765.771c-.063.104.105-.047.128.029-.122.064-.238.069-.365.226-.105-.076.185-.273.237-.255Zm-9.583 9.378c.203-.11.255-.284.446-.249-.058.174-.312.255-.446.249Zm-2.787 3.321c-.069.058-.04.122-.15.18-.122-.098.075-.22.15-.18Z" clip-rule="evenodd"/><path fill="#C0D625" fill-rule="evenodd" d="M186.115 169.901c.336-.197.568-.719.944-.684-.243.197-.608.69-.944.684Z" clip-rule="evenodd"/><path fill="#E59673" d="m143.697 108.264.504-4.174-1.315.476.811 3.698Z"/><path fill="#E59673" d="M141.542 100.845c4.334 7.471 3.059 16.304-2.839 19.724-3.592 2.081-8.065 1.681-11.993-.632-2.532-1.489-4.832-3.773-6.53-6.7-.811-1.403-1.425-2.852-1.854-4.301v-.006c-1.837-6.289-.098-12.6355 4.693-15.4177 2.289-1.3273 4.931-1.6461 7.567-1.107 4.16.8578 8.302 3.8602 10.956 8.4397Z"/><path fill="#E59673" d="M137.355 120.668c5.694-2.059 8.098-9.851 5.369-17.405-2.729-7.5542-9.557-12.0089-15.251-9.9503-5.694 2.0587-8.097 9.8513-5.369 17.4053 2.729 7.554 9.557 12.008 15.251 9.95Z"/><path fill="#fff" d="M143.205 105.731c-.121 1.704-.793 1.907-1.552 1.547-1.113-.527-2.405-2.278-2.405-2.278.197-2.672.869-3.077 1.611-2.608 1.101.696 2.346 3.339 2.346 3.339Z"/><path fill="#000" d="M143.206 105.731c-.122 1.704-.794 1.907-1.553 1.547-.4-.417-.747-.973-.979-1.623-.464-1.281-.359-2.556.185-3.269 1.101.702 2.347 3.345 2.347 3.345Z"/><path fill="#E59673" d="m116.415 140.903 5.929-22.827 9.332 2.425-5.93 22.828-9.331-2.426Z"/><path fill="#000" d="M133.842 106.6c-.371 1.223-1.24 3.495-1.814 5.292-1.94 5.912-7.723 8.428-10.197 7.245-2.566-1.223-6.089-4.834-7.167-12.444-3.059-1.808-4.507-5.646-4.664-9.4595.904 1.4606 2.741 2.4286 3.882 2.672-1.089-1.9823-1.587-6.712-.828-10.1144 1.778 1.6635 4.003 2.8112 6.008 3.4372-.927-.8694-1.727-2.2953-1.935-4.069 2.868.029 5.84 1.2172 7.132 2.4982-.22-1.0375-.985-2.4808-2.184-3.982 3.656-.087 11.077 1.4317 14.542 6.3874 0 0 1.003 1.7273 1.066 1.8374.701 2.7475-1.031 8.8507-3.841 10.6997Z"/><path fill="#E59673" d="M135.221 111.023c-.011.742-2.288 3.008-4.571.475-1.049-1.159-3.059-4.336-.614-6.022 2.439-1.687 3.847 1.211 3.847 1.211l1.338 4.336Z"/><path fill="#000" d="M134.34 109.365c-.122.046-.266 0-.336-.116-.857-1.397-3.175-1.82-3.198-1.826-.157-.029-.255-.174-.232-.33.029-.157.174-.255.325-.232.029.006.654.116 1.402.423 1.025.417 1.761.98 2.178 1.664.081.133.041.307-.093.388-.005.012-.029.023-.046.029Z"/><path fill="#000" d="M132.458 110.513c-.075.029-.162.023-.237-.018-.134-.075-.186-.249-.11-.388l1.066-1.895c.075-.134.249-.186.382-.105.133.076.185.249.11.389l-1.066 1.895c-.029.052-.087.098-.145.122Zm8.1-10.074c-.249.162-.498.348-.747.55-.244.203-.487.418-.719.638-.232.22-.458.452-.678.684-.214.238-.423.481-.614.725l-.011.011c-.128.157-.354.186-.51.058-.122-.098-.168-.261-.122-.406.122-.359.307-.684.516-.985.208-.301.452-.574.712-.829.261-.255.539-.487.846-.69.307-.2025.638-.3822 1.02-.4923.209-.058.429.0637.487.2724.046.1679-.024.3479-.163.4409l-.017.023Zm2.937 12.589c-.034 0-.069-.006-.098-.017l-2.063-.771c-.15-.058-.226-.22-.168-.371.058-.151.221-.226.371-.168l2.063.771c.15.058.226.22.168.371-.047.116-.157.185-.273.185Z"/><path fill="#D2E23D" d="M148.692 130.197c-20.458 19.892-44.236 15.36-46.305-.429-2.207-16.856 27.898-14.218 46.305.429Z"/><path fill="#000" d="M185.946 180.091c-.11 0-.22-.064-.266-.174l-3.505-8.196c-.064-.145.005-.319.15-.383.145-.063.319.006.383.151l3.505 8.196c.064.145-.006.319-.151.382-.034.018-.075.024-.116.024Zm-65.464-36.372c-1.976 0-3.882-.214-5.696-.649-2.925-.701-5.452-1.942-7.508-3.675-2.098-1.768-3.604-3.97-4.479-6.538-.052-.151.029-.319.18-.365.15-.052.318.029.365.18.84 2.469 2.288 4.579 4.304 6.283 1.988 1.681 4.439 2.875 7.272 3.559 4.751 1.142 10.214.742 15.794-1.165 2.984-1.02 5.962-2.458 8.859-4.284 3.082-1.936 6.077-4.318 8.91-7.065.116-.111.296-.111.412.005.116.116.11.296-.006.412-2.862 2.782-5.886 5.182-9.004 7.141-2.937 1.843-5.956 3.304-8.98 4.341-3.563 1.206-7.092 1.82-10.423 1.82Zm42.816 46.544c-.11 0-.214-.064-.26-.168l-12.457-26.924c-.07-.144-.006-.318.139-.382.145-.07.319-.006.382.139l12.457 26.924c.07.144.006.318-.139.382-.041.017-.081.029-.122.029Z"/><path fill="#C0D625" fill-rule="evenodd" d="M175.808 170.034c.005.023.023.041.058.058-.024-.017-.041-.04-.058-.058Zm13.853-3.947c-.006.006-.012.017-.006.023.006-.006.006-.011.006-.023Z" clip-rule="evenodd"/><path fill="#000" d="M102.133 188.553c-.134 0-.255-.093-.284-.232l-4.5484-22.078c-1.3442-6.526-1.4717-13.169-.3708-19.742.0289-.156.1738-.266.336-.237.1564.029.2665.174.2376.336-1.0893 6.503-.9676 13.071.365 19.528l4.5486 22.077c.034.157-.07.308-.226.342-.024.006-.041.006-.058.006Z"/></g><defs><clipPath id="a"><path fill="#fff" d="M145.545 32.4556H284.32v107.209H145.545z"/></clipPath><clipPath id="b"><path fill="#fff" d="M94.9815 188.578h187.346v.51187H94.9815z"/></clipPath><clipPath id="c"><path fill="#fff" d="M113.75 50.6556h63.5294V69.595H113.75z"/></clipPath><clipPath id="d"><path fill="#fff" d="M160.502 123.456h108.859v32.4188H160.502z"/></clipPath><clipPath id="e"><path fill="#fff" d="M175.971 124.934h81.9569v34.125H175.971z"/></clipPath><clipPath id="f"><path fill="#fff" d="M72.0623 87.6813h164.539v112.783H72.0623z"/></clipPath></defs></svg>